<?xml version="1.0" encoding="UTF-8"?>
<svg xmlns="http://www.w3.org/2000/svg" version="1.1" viewBox="0 0 841.89 595.28">
  <defs>
    <style>
      .cls-1 {
        fill: #1d1d1b;
      }
    </style>
  </defs>
  <!-- Generator: Adobe Illustrator 28.7.1, SVG Export Plug-In . SVG Version: 1.2.0 Build 142)  -->
  <g>
    <g id="Lager_1">
      <path class="cls-1" d="M214.58,437.66v-47.09l-15.43,30.64h-10.67l-15.55-30.64v47.09h-15.77v-80.8h15.55l21.11,43.69,20.99-43.69h15.55v80.8h-15.77Z"/>
      <path class="cls-1" d="M295.83,437.66l-4.77-14.3h-28.71l-4.88,14.3h-16.45l29.39-80.8h12.37l29.5,80.8h-16.45ZM277,380.7l-10.21,29.39h20.09l-9.87-29.39Z"/>
      <path class="cls-1" d="M349.28,438.34c-16.57,0-29.73-11.23-29.73-28.37v-53.11h15.77v52.54c0,9.31,5.45,14.87,13.96,14.87s14.07-5.56,14.07-14.87v-52.54h15.66v53.11c0,17.14-13.16,28.37-29.73,28.37Z"/>
      <path class="cls-1" d="M439.5,437.66l-15.77-32.23h-11.35v32.23h-15.77v-80.8h31.66c16.45,0,26.21,11.23,26.21,24.74,0,11.35-6.92,18.38-14.75,21.22l18.04,34.84h-18.27ZM427.24,370.94h-14.87v21.33h14.87c6.92,0,11.46-4.43,11.46-10.67s-4.54-10.67-11.46-10.67Z"/>
      <path class="cls-1" d="M501.69,370.94v66.73h-15.77v-66.73h-21.11v-14.07h57.99v14.07h-21.11Z"/>
      <path class="cls-1" d="M537.32,437.66v-80.8h53.22v14.07h-37.45v18.95h31.89v14.07h-31.89v19.63h37.45v14.07h-53.22Z"/>
      <path class="cls-1" d="M653.61,437.66l-32-49.59v49.59h-15.77v-80.8h14.07l32,49.48v-49.48h15.77v80.8h-14.07Z"/>
      <g>
        <path class="cls-1" d="M304.18,308.43c-7.51,0-13.6-6.09-13.6-13.6v-124.62l111.57,89.94,83.55-154.81,43.23,140.97c2.2,7.18-1.83,14.79-9.01,16.99-7.19,2.2-14.79-1.83-16.99-9.01l-24.17-78.81-68.21,126.39-92.77-74.78v67.76c0,7.51-6.09,13.6-13.6,13.6Z"/>
        <path class="cls-1" d="M543.5,294.35c0,7.77-6.3,14.07-14.07,14.07s-14.07-6.3-14.07-14.07,6.3-14.07,14.07-14.07,14.07,6.3,14.07,14.07Z"/>
      </g>
    </g>
  </g>
</svg>