<?xml version="1.0" encoding="UTF-8" standalone="no"?><!--Created with Inkscape (http://www.inkscape.org/)--><svg width="258.667" height="258.667" xmlns="http://www.w3.org/2000/svg"><path d="M974.18 1447.07c29.77-12.54 53.16-34.61 78.98-53.01 19.18-13.75 37.74-28.36 56.53-42.69 14.02-10.63 28.75-12.89 46.05-7.66 13.95 4.22 28.95 5.24 43.56 7.19 8.9 1.17 16.44-1.95 24.02-7.27 28.67-20.19 58.05-39.49 86.88-59.49 32.1-22.23 63.94-44.73 95.74-67.46 7.07-5.04 13.32-11.17 18.83-18.16-6.45 4.53-12.93 9.1-19.5 13.55-39.02 26.84-77.85 54.06-117.3 80.27-19.61 13.01-40.31 24.38-60.63 36.33-14.92 8.79-30.43 9.81-46.95 4.57-13.09-4.1-26.37-7.5-39.8-10.39-13.32-2.93-23.68 3.91-33.64 11.72-25.39 19.84-51.05 39.26-76.64 58.95-13.67 10.5-27.58 20.74-40.701 31.83-9.379 7.97-19.058 8.28-29.609 4.1-21.371-8.47-43.09-16.52-63.98-26.01-29.141-13.24-58.321-26.56-86.29-41.96-48.64-26.75-96.839-54.25-144.261-83.08-29.528-17.97-57.348-38.75-85.739-58.56-6.492-4.53-11.96-10.39-18.402-14.92-.629-.47-1.328-.94-2.027-1.44-4.5-3.25-9.653-6.96-13.949-6.41-13.473 1.76-21.954-5.35-30.661-12.58-1.019-.9-2.07-1.76-3.171-2.61-9.372-7.62-18.282-15.86-27.93-23.21-9.371-7.07-20.738-8.9-31.289-4.69-13.281 5.36-25.621 12.9-39.289 20 2.5 2.78 3.398 4.34 4.758 5.2 24.851 16.29 49.3 33.05 74.691 48.52 66.211 40.35 134.84 76.36 204.879 109.72 40.75 19.38 82 37.97 123.48 55.86 42.731 18.4 86.059 35.43 129.102 53.13.156.04.156.43.277.66zm-295.739-274.06c-2.113 3.01-2.113 3.04 1.637 5.7.152.12.313.24.473.35 2.687 1.92 4.719 4.89 7.57 6.37 2.617 1.37 5.938 1.45 8.949 2.07-.742-2.85-1.519-5.7-2.461-9.06h1.25c1.563.08 3.711.11 5.821-.12 1.761-.23 3.359-1.37 5.082-2.15-1.371-1.72-2.543-3.71-4.141-5.08-1.371-1.09-3.32-1.6-6.601-3.08h11.171c3.75-5.28.539-6.68-2.269-7.89-.973-.43-1.91-.82-2.5-1.37 3.519-1.48 7.027-3.05 10.547-4.53-2.348-2.42-4.571-4.81-6.918-7.23h13.871c.078-1.64.117-2.85-.274-3.94-1.058-2.97-5.628-4.73-23.168-11.41 8.75.66 17.5 1.25 26.219 1.91 2.461-6.48-1.719-7.96-5.859-8.9-8.168-1.8-16.371-3.17-24.5-4.77-.539-.11-1.012-.7-.11-.08 3.282 0 6.68.04 10.11.04 10.512.04 21.609.08 32.66-.19 2.699-.08 5.309-2.07 7.969-3.17-1.918-1.99-3.399-5.03-5.699-5.93-7.891-3.01-16.098-5.35-26.02-8.56h13.281c.391-2.73.668-4.88 1.02-7.38 3.828-.23 7.5-.47 11.129-.7 0-6.84-3.52-9.22-13.52-10.12-1.75-3.44-3.32-6.29-4.719-9.06h10.079c.582-3.4.859-5 .152-5.9-.582-.78-1.953-1.02-4.531-1.41-9.692-1.56-19.45-2.89-29.063-4.76-1.367-.32-3.277-3.4-3.168-5.08 1.371-17.46 3.051-34.88 4.77-52.35.351-3.63 1.129-7.261 1.761-11.171 22.11 5.16 43.86 10.741 65.821 15.281 25.738 5.27 51.558 9.8 77.418 14.33 11.41 1.95 23.09 2.42 34.371 4.85 5.98 1.32 11.328 5.35 16.918 8.39.312.16.23.98.152 1.76-.031.35-.07.71-.07.98-5.903.78-11.641 1.48-16.641 2.15-2.66 5.93.07 7.65 3.039 9.49 1.762 1.09 3.602 2.23 4.422 4.3-5.98-.9-11.992-1.72-18.012-2.74-6.211-1.01-12.461-2.46-18.75-3.2-1.449-.2-4.3 1.64-4.3 2.62 0 1.71 1.25 4.49 2.621 4.96 6.949 2.34 14.101 4.06 18.711 5.35 3.359 4.06 4.879 7.62 7.578 8.87 7.422 3.43 15.312 5.89 23.051 8.75-.122.7-.239 1.4-.321 2.1-5.39-.74-10.859-1.4-16.289-2.22-7.769-1.21-15.43-2.7-23.199-3.52-1.41-.15-2.891.63-4.371 1.45-.668.35-1.328.7-2 .97 1.41 2.07 2.781 4.22 4.34 6.18.511.74 1.64 1.13 2.539 1.36 5.191 1.25 9.019 3.28 12.851 7.97 3.75 4.73 11.09 6.45 17.809 10-5.617-.47-10.149-.82-14.918-1.25.238 9.03 2.148 15.86 12.027 17.78-1.25.11-2.457.27-3.707.35-1.172.11-2.422.19-3.91.23-.699 6.52 3.289 8.36 7.391 10.2 2.5 1.13 5.039 2.3 6.597 4.53h-11.718c.898 2.73 1.019 5.9 2.187 6.37 6.832 2.69 11.172 8.63 16.953 12.3 2.891 1.88 7.028 1.91 11.09 1.95 1.41.04 2.777.04 4.109.12 1.719.16 3.469-.16 5.192-.43.859-.16 1.68-.27 2.539-.39-.82-1.84-.473-3.91-.082-6.02.551-3.28 1.101-6.56-2.891-9.02-2.687-1.6-5.109-3.63-9.648-6.83 9.07.7 15.941 1.32 22.859 1.83 1.281-6.17-1.961-7.42-5.469-8.75-2.109-.82-4.3-1.64-5.71-3.59 1.761-1.72 3.992-3.87 7.308-7.07.391-4.81-3.09-6.1-6.918-7.46-2.808-1.02-5.82-2.11-7.531-4.73 6.793 1.17 13 2.27 19.332 3.4 2.891-6.84-1.133-7.81-5.121-8.83-.469-.08-.93-.2-1.36-.35-4.179-1.17-8.281-2.42-12.269-4.45 13.789 1.6 27.66 3.28 41.25 4.84 2.027-5.24.898-7.85-3.633-9.42-7.109-2.5-14.058-5.35-21.098-9.1.75 0 1.532.04 2.27.08 1.762.08 3.52.16 5.23-.19 1.61-.28 4.418-2.5 4.34-2.62-1.679-3.13-.269-3.83 1.91-4.96.321-.16.668-.31 1.02-.51 3.59-1.99 2.461-5.04-1.129-6.52-3.832-1.6-7.699-3.21-11.723-4.34-4.687-1.25-9.339-1.05-12.539-6.52-1.718-2.93-7.738-3.28-11.718-5.78 5.238.46 10.468.93 15.738 1.48 2.191-6.68-1.559-8.16-5.231-9.57-1.449-.59-2.847-1.13-3.91-2.03-1.519-1.29-3.199-2.38-4.879-3.56.661-.31 1.289-.7 1.95-1.09 1.41-.82 2.781-1.68 4.101-1.64 20.75 1.05 41.57 2.42 63.442 3.87.82 19.02 2.07 38.28 2.187 57.58.082 6.13-1.641 13-4.879 18.12-1.64 2.7-8.32 2.27-14.07 3.52.039 1.01.359 3.78.59 6.83-1.09-.12-2.301-.27-3.559-.47-2.891-.39-6.09-.86-9.211-.7-2.539.04-5 1.99-7.5 3.12 1.711 1.92 3.039 4.54 5.192 5.55 7.187 3.56 14.609 6.64 23.398 10.59-1.289 0-2.461-.04-3.52-.04-2.14-.04-3.82-.08-5.5.08-2.582.23-5 1.01-7.5 1.48 1.321 2.46 2.571 4.88 4.059 7.19.43.66 1.441.9 1.52.9v10.7c-.27.23-.739.55-1.289.9-1.211.82-2.692 1.83-2.571 2.5.352 1.95 2.262 4.02 4.063 5.15 4.687 2.97 9.687 5.55 14.488 8.25-.23.66-.469 1.25-.699 1.91h-10.039c-1.684 5.35-.391 8.79 4.566 10.51 5.434 1.95 5.434 6.01 5.434 10.35 0 .74 0 1.48.039 2.23.039 2.97.929 6.52 2.769 8.71 2.071 2.58 5.469 4.18 8.559 5.58 1.793.82 4.531 1.33 6.051.47 1.09-.58.898-3.59 1.332-5.97 2.258.27 5.269.62 10.618 1.36-1.76-3.75-2.3-7.26-4.142-8.28-6.91-3.75-8.316-8.71-4.957-16.05h8.319c.24-1.29.39-2.19.24-3.05-.39-1.99-2.461-3.63-9.301-9.1 7.771-3.24 7.891-4.77.27-11.68 3.953-.16 7.191-.35 10.431-.51.12-1.05.24-1.8.08-2.5-.35-1.87-2.5-3.44-10.511-9.18 1.371 0 2.66.04 3.871.04 2.73.04 5.23.08 7.73-.08 1.96-.11 3.79-1.09 5.71-1.6-1.29-1.95-2.27-4.57-4.1-5.66-4.22-2.43-8.911-3.99-13.321-6.1-1.019-.5-1.488-1.99-2.969-3.98 12.3 1.87 23.47 2.97 34.25 5.62 3.99 1.02 9.26 5.59 9.85 9.22 1.09 6.64 4.41 8.09 9.8 8.56 1.21.11 2.27 1.25 3.44 1.25 3.13 0 6.21-.35 9.34-.55-1.06-3.12-2.11-6.29-3.21-9.49 1.14-.31 3.75-.9 7.66-1.84-2.74-3.94-4.69-6.79-6.84-9.8 2.74-1.84 6.21-4.18 10.08-6.8 1.29-6.99-3.12-8.16-7.81-9.37-3.83-1.02-7.81-2.07-8.91-6.41 6.25 1.17 11.76 2.58 17.35 3.2 1.56.16 3.2-.54 4.8-1.25.7-.31 1.37-.62 2.03-.86-1.48-1.99-2.5-5.04-4.49-5.93-6.21-2.74-12.77-4.69-19.22-6.96.08-.62.2-1.25.24-1.87 3.32.58 6.71 1.05 10.03 1.72 3.36.62 6.61 1.87 10 2.11 1.06.11 2.23-.67 3.36-1.41.51-.35 1.02-.7 1.53-.94-1.13-1.68-1.92-4.22-3.44-4.76-6.45-2.39-13.05-4.11-19.57-6.14-.78-.23-1.56-.66-2.3-1.01.11-.63.27-1.25.39-1.88 3.98.71 7.96 2 11.95 2h.19c3.83.07 9.07.15 11.18-2.11 5.97-6.37 5.15-7.74-3.21-11.18 4.81-3.24 4.85-6.25-.31-8.32-6.25-2.5-12.85-4.22-20.39-6.6 1.72-.62 2.3-.86 2.85-1.01 2.58-.98 5.04-1.96 7.62-2.93-1.72-2.39-2.97-6.06-5.31-6.96-5.63-2.18-5.82-5.93-4.57-10.62.97-3.52 2.03-7.03 2.93-10.04 50.19-8.44 100.97-14.02 140.97-49.34l-1.09-2.848c-5.74 2.379-11.76 4.258-17.15 7.269-20.51 11.168-42.62 17.579-65.51 21.129-18.01 2.85-36.21 4.92-54.33 6.37-3.09.23-6.21.47-9.34.74-22.85 1.8-45.699 3.63-68.55 3.4-22.661-.16-45.321-3.56-67.93-5.63-4.301-.43-7.07-7.65-5.899-14.02.7-3.871 1.438-7.852 1.129-11.719-.199-1.949-2.621-3.789-3.98-5.621-1.57 1.988-4.141 3.82-4.418 5.969-.742 7.269-.703 14.651-1.051 23.211-12.891-2.5-24.18-4.46-35.43-6.84-48.32-10.121-95.742-23.36-141.992-40.469-38.597-14.332-77.187-28.91-114.89-45.43-39.137-17.191-77.731-35.941-115.7-55.621-24.769-12.859-48.089-28.601-72.187-42.781-4.41-2.609-9.57-3.859-14.453-5.859-4.449 22.66.121 40.902 16.441 55.55 3.09 2.77 5.551 6.289 8.211 9.532 14.098 16.949 31.68 28.668 52.301 36.558 32.269 12.391 64.18 25.668 96.328 38.289 10.469 4.102 21.371 7.262 31.91 11.25 2.11.742 4.852 3.199 4.969 4.961.391 6.442.312 12.891.269 19.18-.039 2.18-.039 4.41-.039 6.558-1.558-.078-3.007-.16-4.449-.238-3.32-.23-6.41-.43-9.461-.308-1.828.16-3.629 1.757-5.429 2.617 1.101 1.871 1.679 4.301 3.25 5.351 3.902 2.85 8.242 5.08 12.14 8.44-6.75-1.76-13.469-3.91-20.308-5.16-1.832-.31-3.872.28-5.864.9-.898.23-1.789.51-2.687.7 1.168 2.62 2.301 5.24 4.289 9.57-1.641 3.75.98 7.62 6.332 10.35l20.156 10.36c-.156.62-.348 1.25-.547 1.87-8.011-1.64-15.98-3.55-23.98-4.92-1.68-.27-3.442.19-5.242.7-.821.24-1.637.47-2.457.59 1.367 2.85 2.109 7.07 4.378 8.28 8.79 4.53 18.122 8.09 27.149 13.24-1.289 0-2.617-.04-3.91-.12-3.047-.11-6.09-.23-8.989.32-3.71.7-7.07 2.89-10.582 4.45 2.422 2.85 4.883 5.74 7.622 8.99-.079.19-.239.42-.399.78-.582 1.17-1.562 3.04-1.519 4.92.039 1.17 3.046 2.5 4.878 3.32 4.809 2.19 9.692 4.22 14.301 7.38-1.051 0-2.191-.04-3.242-.08-2.578-.08-5.117-.15-7.578.2-1.992.27-3.789 2.07-5.699 3.2 1.359 1.99 2.379 4.57 4.218 5.86.7.51 1.481.82 2.301 1.13 2.149.86 4.18 1.64 3.008 5.47-.199.59 2.77 2.85 4.371 3.05 4.539.55 9.11.59 13.641.27 2.301-.11 4.57-1.4 6.871-2.18-1.012-2.62-1.953-5.24-3.082-8.21 8.199-5.62 7.18-9.69-5.16-15.82 6.871-3.2 6.718-6.09-2.578-14.18 1.488 0 2.769.04 3.91.04 2.418.08 4.289.12 6.09-.15 2.738-.43 7.187-1.1 7.617-2.5.551-1.88-.16-4.11-.86-6.29-.269-.9-.55-1.8-.738-2.62 8.008.9 17.457 1.99 26.828 3.08.352-2.85.551-4.49.039-5.89-.699-2-2.808-3.48-7.929-7 2.152-1.25 4.652-2.73 7.152-4.21-1.871-2.58-3.359-5.55-5.66-7.58-2.313-1.99-5.512-3.13-8.481-4.73 2.66-7.15-1.992-9.96-6.48-12.69-.899-.59-1.801-1.14-2.621-1.72l-.078-.04c-4.493-3.05-8.2-5.63-.661-11.17-4.609-1.33-7.781-2.19-11.921-3.32.589-8.911 1.25-18.438 1.961-28.72 15.929 4.809 31.789 9.571 47.609 14.461 12.891 3.938 12.891 4.059 12.191 16.719l-.039.66c-.703 14.41-1.051 28.83-1.519 43.2-.043 2-.043 3.95 0 5.28v1.17c-6.801 2.38-12.313 4.33-17.852 6.29 1.012 1.95 1.988 3.98 3 5.94l-1.09-.36v16.29c-4.769-.58-9.57-1.6-14.371-1.72-1.609-.03-3.211.71-4.847 1.45-.704.31-1.442.66-2.192.94 1.25 1.95 2.469 3.98 3.711 5.93.707 1.14 1.41 2.39 2.391 3.32 2.109 2.04 4.097 4.81 6.718 5.71 6.211 2.07 12.809 2.97 19.098 4.88 2.383.7 4.223 3.01 6.332 4.65-.359.47-.781.94-1.14 1.41-2.54 0-5.071 0-7.649-.04-6.801-.04-13.641-.04-20.391.15-2.031.08-4.07 1.8-6.058 2.81 1.406 1.72 2.656 3.72 4.379 5.04 1.91 1.41 4.289 2.15 5.699 2.86-1.289 1.28-3.91 2.77-3.91 4.21 0 1.92 1.609 4.69 3.32 5.47 5.711 2.74 11.719 4.69 16.961 6.72-2.152 1.8-4.609 3.75-7.031 5.74 3.98 3.05 7.961 6.02 11.519 8.72.313 2.42.661 5.5 1.09 8.55-1.597 1.41-5.469 3.2-6.129 5.82-.468 1.72 1.059 3.75 2.852 6.09.738 1.02 1.558 2.07 2.269 3.17zm877.849-237.619c-15.55 3.359-31.06 7.031-46.76 9.879-19.57 3.558-39.18 7.5-58.91 9.5-31.95 3.351-64.06 5.46-96.09 7.609-16.09 1.062-32.38 2.031-48.51 1.332-26.14-1.133-52.27-3.512-78.44-5.781-64.06-5.59-126.84-18.239-187.81-38.711-28.99-9.731-57.579-20.86-85.59-33.199-21.25-9.379-41.25-21.68-61.719-32.739-4.371-2.34-7.93-.551-9.57 4.957-3.871 13.211 3.32 29.813 15.39 36.762 31.68 18.16 65.078 32.621 100.117 42.301 33.792 9.34 68.122 16.648 102.462 23.25 23.44 4.527 47.3 6.64 71.05 9.14 19.65 2.071 39.38 3.59 59.18 4.528 28.52 1.371 57.11 2.191 85.71 2.972 6.29.149 8.98 1.289 7.18 8.469-1.56 6.219-.93 12.82-1.91 19.14-.47 3.29-2.15 6.37-2.66 10-2.34 1.96-5.5 1.65-8.79 1.29-4.8-.47-9.84-1.01-12.85 5.47-.66-.04-1.36-.08-2.11-.15-2.46-.2-5.39-.43-8.36-.32-2.26.12-4.49 1.25-6.75 1.92.78 2.26 1.6 4.57 2.38 6.83-1.6.04-3.87.2-6.37.36-2.07 4.45-.78 7.03 3.91 8.78 9.57 3.6 19.1 7.43 29.41 11.53-2.11.27-3.59.08-4.8.66-1.41.67-3.32 1.8-3.56 2.93-.19 1.25 1.02 3.32 2.27 4.1 4.69 3.01 9.69 5.63 15.86 9.14-8.05-.35-9.34 3.21-6.84 9.26h-12.54c1.64 3.87 2.89 6.8 4.03 9.34-1.29 1.25-2.89 2.81-4.5 4.29 1.65 1.41 3.09 3.21 4.93 4.26 4.45 2.58 9.25 4.46 13.55 7.19 1.72 1.09 2.42 3.71 4.65 7.38l8.2-6.4c-.31-.43-.66-.86-.97-1.21h10.82c1.79-4.77-.75-6.22-3.75-7.9-1.84-1.01-3.83-2.14-5.12-4.17 1.33.07 2.54.07 3.67.07 2.31 0 4.3 0 5.98.71 6.72 2.81 7.85 0 6.87-5.16 3.17-.82 6.25-1.68 9.34-2.5-2.5-2.81-4.61-6.13-7.62-8.2-4.84-3.44-10.27-6.06-16.44-9.57 13.59 2.38 26.01 4.53 38.2 6.64 2.38-6.96-1.41-8.28-5.12-9.61l-.27-.12c-10.51-3.75-21.06-7.5-31.33-12.42 9.65 1.29 19.26 2.5 28.83 3.98 5.27.82 8.4.04 6.6-6.4 2.19-.32 4.34-.55 6.48-.86.4-.59.82-1.25 1.25-1.84-1.91-1.72-3.51-4.14-5.78-5.04-7.89-3.04-15.97-5.54-25.78-8.86 1.64 0 3.09 0 4.42.03 2.97 0 5.31.04 7.65-.07 2.11-.12 4.22-.67 6.33-1.02-1.25-2.15-2.07-5.59-3.83-6.33-9.33-3.47-18.98-6.33-28.47-9.45-.43-.12-.86-.39-.75-.35v-35.901c33.13-2.339 65.08-4.687 98.56-7.109-2.38 2.07-3.56 3.629-5.12 4.449-4.26 2.27-4.8 5.59-3.98 10 1.25 6.68 1.99 13.52 2.69 18.601-2.07 0-4.14-.12-6.17-.24-4.49-.27-8.79-.51-12.81.51-5.63 1.48-4.26 3.67-2.89 5.9.66 1.05 1.33 2.15 1.17 3.16-.35 4.61-.7 9.3-1.06 14.5-6.48-1.02-12.89-2.04-19.92-3.17-.04.59-.15 1.17-.23 1.68-.2 1.09-.39 1.95-.04 2.27 5.74 4.8 6.64 14.06 16.01 15.97 8.56 1.72 16.76 5.39 25.04 8.44 1.41.55 2.43 2.19 3.68 3.32-.55.16-1.1.35-1.65.55-1.17.47-2.34.9-3.47.78-11.88-1.6-23.75-3.52-35.63-5.31-.35 2.69-.54 4.29-.04 5.62.71 1.92 2.93 3.28 8.4 6.64-4.53 2.5-6.01 5.51-.82 8.67 5.59 3.4 11.53 6.29 16.53 9.03-1.72 1.44-5.32 3.08-5.32 4.76.08 2.15 2.7 5.82 4.65 6.1 8.52 1.32 4.77 10.19 8.67 12.73-2.65 1.84-5.15 3.56-7.65 5.27 1.79 2.58 3.55 5.12 5.86 8.48-2.46 2.54-2.35 5.47 2.89 8.01 3.43 1.68 5.86 5.27 9.26 7.26 1.17.67 2.77.63 4.41.55.82 0 1.6-.04 2.34.04-1.13-2.03-2.3-4.06-3.43-6.02-.36-.58-.82-1.13-2.04-2.73 1.14.23 2.15.47 3.05.66 1.99.47 3.63.86 5.24.79 2.26-.12 4.37-1.37 6.6-2.15-1.25-1.84-2.39-3.67-3.83-5.43-.7-.86-1.84-1.41-2.74-2.11 3.4-.74 6.57-1.37 11.37-2.35-3.79-3.2-6.25-5.15-10.04-8.32 4.77-.35 7.54-.5 11.76-.82-.94-2.97-1.84-5.58-2.77-8.39 2.42-.12 5.74-.28 9.02-.47.08-.75.12-1.33.04-1.92-.39-2.38-3.59-4.33-20.31-14.41l9.1 1.6c3.12.55 6.25 1.37 9.37 1.56 1.61.08 3.25-.27 4.89-.58.7-.16 1.36-.28 2.07-.39-1.6-2.15-2.85-5.36-5-6.18-8.83-3.39-18.01-6.05-27.03-8.98-.9-.27-1.8-.39-2.5-2.07 7.53 1.25 15.11 2.62 22.65 3.79 8.48 1.37 16.95 2.81 25.43 3.63 1.29.12 2.7-.9 4.14-1.91.59-.43 1.21-.9 1.8-1.21-1.17-1.88-1.88-4.73-3.56-5.47-8.86-4.07-17.89-7.62-26.79-11.33 1.13-1.56 3.43-.86 5.74-.2 3.67 1.1 7.34 2.15 6.13-6.21.47-.11.94-.35 1.45-.35 1.13-.08 2.54-.04 3.9 0 3.01.08 6.02.12 6.49-.9 1.68-4.02-1.17-5.04-3.99-6.01-1.09-.35-2.14-.74-2.96-1.29-2.35-1.56-5.43-2.07-8.17-3.05-.58-2.54-1.25-5.15-1.87-8.05h.78c.82.08 1.87.12 2.89-.07 2.19-.43 4.33-1.14 6.48-1.72-1.6-1.92-2.85-5-4.8-5.59-8.56-2.69-17.38-4.69-26.96-7.19v-44.101c40.75-6.051 80.32-13.789 118.99-25.539zM1000.74 1075.9c5.16 10.15 6.17 22.46 18.75 27.38-2.42.2-4.84.39-7.11.55-2.61 8.05 3.32 11.17 8.13 13.12 6.99 2.89 7.26 7.82 7.58 13.52.07 1.05.11 2.11.23 3.2-6.56-2.03-12.27-3.79-17.89-5.55-.23-2.1-.51-4.02-.78-6.17-6.92-1.25-13.56-2.5-21.681-3.98 4.222-27.58 3.203-54.65-2.699-81.6 17-.75 32-1.41 48.01-2.19-.7 7.77-1.29 14.49-1.72 19.26-10.86 2.65-19.76 4.8-28.4 6.87-1.64 6.37 1.92 7.81 5.51 9.34 2.15.86 4.3 1.76 5.35 3.71-4.14.86-8.24 1.6-13.28 2.54zm-416.638 280c50.039 50 107.5 88.75 172.347 116.17 67.18 28.4 137.531 42.62 211.051 42.62 73.55 0 143.87-14.22 211.05-42.62 64.85-27.42 122.31-66.17 172.35-116.17 38.79-38.83 70.82-82.11 96.05-129.88l-6.75 7.14-3.25 3.05-8.94 7.34-1.88 1.45-1.01.74-9.5 6.72-9.45 6.76-9.49 6.72-.04.04c-18.05 26.32-38.55 51.01-61.6 74.06-47.97 47.93-103.05 85.08-165.24 111.37-64.37 27.22-131.79 40.86-202.3 40.86-70.512 0-137.93-13.64-202.301-40.86-62.187-26.29-117.269-63.44-165.238-111.37-7.813-7.85-15.352-15.86-22.582-24.06l-.66-.36-10.391-5.54-10.308-5.63-10.36-5.66-10.269-5.74-9.02-5.12c17.18 24.02 36.438 46.64 57.731 67.97zm882.968-594.451c-27.42-64.847-66.17-122.308-116.17-172.347-50.04-50-107.5-88.75-172.35-116.172-67.18-28.399-137.5-42.621-211.05-42.621-73.52 0-143.871 14.222-211.051 42.621-64.847 27.422-122.308 66.172-172.347 116.172-50 50.039-88.75 107.5-116.172 172.347-5.66 13.391-10.782 26.91-15.309 40.582l19.918 11.289a523.117 523.117 0 0 1 16.051-43.121c26.289-62.187 63.441-117.269 111.371-165.238 47.969-47.93 103.051-85.082 165.238-111.371 64.371-27.219 131.789-40.86 202.301-40.86 70.51 0 137.93 13.641 202.3 40.86 62.19 26.289 117.27 63.441 165.24 111.371 47.93 47.969 85.08 103.051 111.37 165.238 19.68 46.52 32.26 94.641 37.73 144.41l7.7-1.41 11.4-2.109 1.02-.192 1.99-.386c-5.78-51.332-18.83-101.024-39.18-149.063zM425.309 972.5c0 50.47 6.679 99.45 20.082 146.91l21.019-8.16c-12.43-44.84-18.68-91.09-18.68-138.75 0-10.16.321-20.27.86-30.309l-6.75-4.179-9.93-5.942-2.73-1.8-2.149-1.559a560.182 560.182 0 0 0-1.722 43.789z" style="fill:#000;fill-opacity:1;fill-rule:evenodd;stroke:none" transform="matrix(.13333 0 0 -.13333 0 258.667)"/><path d="m303.238 1115.74-141.718 26.8 8.679 45.9-32.82 6.21-23.668-125.35 32.769-6.21 8.168 43.12 141.762-26.8zM362.5 1279.57l15.352 37.27-202.891-18.17 131.519-155.39 14.5 35.27-17.699 19.65 32.739 79.61zm-125.039-8.12 61.519 4.06-20.5-49.81zM269.84 1468.83l-23.121-28.79 138.511-111.21 23.129 28.79-36.64 29.41-3.008 27.81 93.711 10.08 31.168 38.87-126.871-13.71-13.438 122.69-30.902-38.47 12.93-118.01zM629.219 1681.05l-116.328 23.91 77.968-163.05 33.321 15.94-46.168 96.56 70.039-12.73 34.058 62.54 46.172-96.6 33.36 15.93-77.969 163.09zM919.922 1649.26l39.848 5.97L840 1820l-65.82-192.66 37.73 5.67 7.781 25.31 85.11 12.77zm-71.211 103.08 35.117-50.66-53.277-8.01zM1018.79 1650.08l7.23 144.06 46.68-2.34 1.68 33.36-127.431 6.36-1.679-33.32 43.832-2.22-7.223-144.07zM1269.41 1574.49c45.39-22.77 100.55-4.29 123.29 41.13 22.77 45.4 4.49 100.43-41.14 123.29-45.39 22.77-100.43 4.49-123.2-40.9-22.74-45.39-4.57-100.67 41.05-123.52zm66.37 132.89c26.84-13.47 37.03-46.87 23.05-74.76-14.22-28.36-46.64-39.85-73.52-26.37-27.26 13.67-37.26 46.41-23.04 74.77 13.98 27.93 46.44 39.92 73.51 26.36zM1501.41 1392.89l110.97 92.11 29.85-35.94 25.7 21.33-81.48 98.13-25.67-21.29 28.01-33.79-111.02-92.11zM1574.77 1267.54c20.74-42.66 60.82-55.24 107.34-32.62l88.55 43.09-16.17 33.24-91.37-44.45c-23.98-11.68-44.41-8.36-56.44 16.29-11.45 23.59-3.24 42.69 21.84 54.88l91.32 44.45-16.17 33.24-85.78-41.75c-44.37-21.57-65.9-59.65-43.12-106.37zM1661.88 1119.96l-24.65-34.41 9.37-48.21 32.93 45.51c15.98-22.15 41.8-32.69 73.17-26.6 37.92 7.38 62.5 44.69 54.57 85.63l-11.8 60.62-174.38-33.83 7.03-36.29 30.2 5.86zm29.21 24.65 78.68 15.27 4.25-22.03c4.93-25.27-9.92-41.48-31.21-45.62-24.33-4.73-42.85 6.72-47.85 32.46zM826.602 144.41l-17.153 3.949 5.321 23.2-60.282 13.832-5.308-23.2-17.149 3.938 10.86 47.269c1.597 6.911 4.218 13.012 7.929 18.243 3.711 5.269 8.16 9.488 13.36 12.699 5.16 3.199 10.898 5.308 17.191 6.32 6.289 1.02 12.848.75 19.68-.859l38.64-8.86c1.168-.281 2.258-.742 3.2-1.453a8.605 8.605 0 0 0 2.339-2.457c.629-.98 1.02-2.031 1.219-3.203.192-1.129.153-2.308-.121-3.519zm-68.161 58.129 60.27-13.828 8.519 37.027-30.121 6.961c-.55.11-1.679.27-3.398.5-1.723.242-3.75.321-6.133.199-2.348-.078-4.918-.507-7.656-1.207-2.774-.711-5.434-1.961-8.012-3.711-2.57-1.761-4.922-4.179-7.07-7.23-2.11-3.051-3.711-6.988-4.801-11.801zm28.399 73.441c.5 2.18 1.441 4.098 2.851 5.782 1.36 1.718 3.039 3.078 5.039 4.097 2.032 1.051 4.29 1.719 6.829 2.032 2.543.269 5.242.121 8.089-.551 3.122-.699 5.782-1.75 8.012-3.16 2.18-1.371 3.942-2.969 5.192-4.77a14.393 14.393 0 0 0 2.5-5.859 16.14 16.14 0 0 0-.192-6.36c-.512-2.152-1.41-4.101-2.738-5.781-1.293-1.719-2.973-3.129-4.922-4.18-1.988-1.101-4.262-1.761-6.84-2.07-2.57-.281-5.308-.082-8.281.578-3 .711-5.617 1.762-7.809 3.133a18.634 18.634 0 0 0-5.23 4.801 15.25 15.25 0 0 0-2.621 5.937c-.391 2.11-.348 4.219.121 6.371zm12.648-2.89c-.386-1.801-.187-3.442.672-4.93.82-1.519 2.301-2.5 4.41-2.961 2.11-.508 3.828-.238 5.16.742 1.36.969 2.219 2.379 2.649 4.18.391 1.758.199 3.399-.539 4.84-.789 1.488-2.231 2.461-4.34 2.969-2.109.468-3.871.23-5.27-.739-1.41-.98-2.308-2.351-2.742-4.101zM1022.07 199.059c.04-4.02-.39-7.61-1.37-10.778-.93-3.16-2.26-5.98-3.94-8.402a27.978 27.978 0 0 0-5.78-6.25c-2.19-1.75-4.5-3.16-6.88-4.289a34.147 34.147 0 0 0-7.299-2.5c-2.422-.512-4.731-.789-6.922-.82l37.071-31.329-27.18-.281-37 31.328-12.649-.117-.199 17.578 39.769.43c2.219.199 4.219.672 6.047 1.449 1.84.742 3.403 1.762 4.692 3.043 1.33 1.289 2.34 2.82 3.05 4.609.7 1.801 1.05 3.829 1.01 6.141l-.11 11.09c0 .98-.16 1.758-.4 2.269-.27.5-.58.891-.97 1.129-.35.231-.78.391-1.21.43-.43.039-.82.039-1.18.039l-58.042-.59.82-79.449-17.578-.16-.941 88.133c0 1.25.199 2.379.672 3.468.429 1.098 1.008 2.04 1.789 2.86a7.79 7.79 0 0 0 2.82 1.91c1.051.469 2.219.699 3.512.738l66.758.711c3.95.031 7.27-.668 9.96-2.039 2.73-1.398 4.96-3.16 6.68-5.269 1.68-2.153 2.93-4.45 3.71-6.911.78-2.46 1.17-4.808 1.17-6.96zM1186.6 203.012l-54.06-12.782-4.06 17.27 54.06 12.77zm16.8-36.762-61.76-14.57c-2.38-.59-5.08-.782-8.05-.59-3 .16-5.93.898-8.79 2.269-2.85 1.332-5.42 3.36-7.73 6.02-2.34 2.691-4.02 6.242-5.08 10.66l-14.57 61.762c-.27 1.211-.31 2.379-.12 3.508.2 1.171.55 2.23 1.14 3.211.58.968 1.36 1.789 2.3 2.5.98.66 2.03 1.171 3.28 1.441l77.11 18.199 4.03-17.109-68.6-16.211 12.58-53.281c.51-2.219 1.52-3.789 2.97-4.68 1.48-.899 3.36-1.098 5.62-.551l61.65 14.531z" style="fill:#000;fill-opacity:1;fill-rule:nonzero;stroke:none" transform="matrix(.13333 0 0 -.13333 0 258.667)"/><path d="M283.359 1656.64c-89.257-89.3-158.359-191.8-207.308-307.54C25.35 1229.26 0 1103.71 0 972.5c0-131.211 25.352-256.762 76.05-376.602C125 480.16 194.103 377.66 283.36 288.359 372.66 199.102 475.16 130 590.898 81.019 710.738 30.352 836.289 5 967.5 5c131.21 0 256.76 25.352 376.6 76.02 115.78 48.98 218.28 118.082 307.54 207.339C1740.9 377.66 1810 480.16 1858.98 595.898 1909.65 715.738 1935 841.289 1935 972.5c0 131.21-25.35 256.76-76.02 376.6-48.98 115.74-118.08 218.24-207.34 307.54-89.26 89.26-191.8 158.36-307.54 207.31-119.84 50.7-245.39 76.05-376.6 76.05-131.211 0-256.762-25.35-376.602-76.05C475.16 1815 372.66 1745.9 283.359 1656.64ZM19.102 972.5c0 128.63 24.847 251.68 74.527 369.14 47.973 113.48 115.75 213.98 203.25 301.48 87.5 87.5 188 155.28 301.48 203.25 117.461 49.68 240.512 74.53 369.141 74.53 128.63 0 251.68-24.85 369.18-74.53 113.44-47.97 213.94-115.75 301.44-203.25s155.28-188 203.29-301.48c49.68-117.46 74.53-240.51 74.53-369.14 0-128.629-24.85-251.68-74.53-369.18-48.01-113.441-115.75-213.941-203.29-301.441-87.5-87.5-188-155.277-301.44-203.25-117.5-49.68-240.55-74.527-369.18-74.527-128.629 0-251.68 24.847-369.141 74.527-113.48 47.973-213.949 115.711-301.48 203.25-87.5 87.5-155.277 188-203.25 301.441-49.68 117.5-74.527 240.551-74.527 369.18Z" style="fill:#000;fill-opacity:1;fill-rule:evenodd;stroke:none" transform="matrix(.13333 0 0 -.13333 0 258.667)"/></svg>