<?xml version="1.0" encoding="UTF-8" standalone="no"?>
<!-- Created with Inkscape (http://www.inkscape.org/) -->

<svg
   version="1.1"
   id="svg2"
   width="156"
   height="145.33333"
   viewBox="0 0 156 145.33333"
   sodipodi:docname="base_icon_transparent_background.eps"
   xmlns:inkscape="http://www.inkscape.org/namespaces/inkscape"
   xmlns:sodipodi="http://sodipodi.sourceforge.net/DTD/sodipodi-0.dtd"
   xmlns="http://www.w3.org/2000/svg"
   xmlns:svg="http://www.w3.org/2000/svg">
  <defs
     id="defs6">
    <clipPath
       clipPathUnits="userSpaceOnUse"
       id="clipPath18">
      <path
         d="M 0,0 H 1170 V 1090 H 0 Z"
         id="path16" />
    </clipPath>
    <clipPath
       clipPathUnits="userSpaceOnUse"
       id="clipPath24">
      <path
         d="m 578.238,1022.19 c 29.852,-12.58 53.321,-34.69 79.184,-53.17 19.258,-13.79 37.848,-28.43 56.719,-42.809 14.058,-10.66 28.828,-12.93 46.168,-7.691 14.031,4.25 29.031,5.269 43.711,7.218 8.91,1.172 16.492,-1.949 24.07,-7.258 28.789,-20.281 58.238,-39.652 87.14,-59.691 32.192,-22.269 64.149,-44.879 96.02,-67.617 7.11,-5.082 13.36,-11.211 18.91,-18.242 -6.53,4.531 -13.01,9.101 -19.57,13.59 -39.141,26.921 -78.09,54.218 -117.66,80.511 -19.649,13.047 -40.391,24.449 -60.782,36.41 -14.957,8.829 -30.546,9.84 -47.109,4.61 -13.09,-4.102 -26.449,-7.5 -39.918,-10.43 -13.359,-2.93 -23.711,3.899 -33.75,11.719 -25.43,19.922 -51.172,39.41 -76.84,59.14 -13.672,10.54 -27.652,20.821 -40.82,31.95 -9.41,7.97 -19.141,8.28 -29.691,4.1 -21.442,-8.51 -43.2,-16.561 -64.18,-26.089 -29.219,-13.281 -58.469,-26.64 -86.559,-42.07 -48.75,-26.84 -97.07,-54.461 -144.652,-83.359 -29.609,-17.973 -57.5,-38.832 -86.008,-58.711 -6.492,-4.531 -11.961,-10.43 -18.402,-14.961 -0.668,-0.43 -1.367,-0.942 -2.028,-1.449 -4.531,-3.243 -9.73,-6.95 -14.031,-6.411 -13.469,1.758 -22.031,-5.351 -30.738,-12.609 -1.012,-0.902 -2.07,-1.762 -3.16,-2.66 -9.422,-7.621 -18.3636,-15.902 -28.012,-23.242 -9.4102,-7.071 -20.7812,-8.949 -31.4102,-4.688 -13.2812,5.348 -25.6992,12.93 -39.4101,20 2.5,2.809 3.3984,4.379 4.7695,5.27 24.9219,16.328 49.4922,33.129 74.9219,48.64 66.3989,40.469 135.2699,76.598 205.4689,110.039 40.89,19.411 82.262,38.079 123.859,56.008 42.852,18.481 86.289,35.512 129.461,53.282 0.192,0.08 0.192,0.43 0.309,0.67 z M 281.641,747.34 c -2.11,3.051 -2.11,3.051 1.64,5.711 0.16,0.109 0.309,0.23 0.508,0.39 2.66,1.911 4.691,4.879 7.582,6.36 2.609,1.371 5.93,1.449 8.981,2.078 -0.782,-2.859 -1.563,-5.707 -2.5,-9.109 0.347,0 0.777,0 1.289,0.039 1.519,0.043 3.668,0.121 5.781,-0.149 1.797,-0.238 3.398,-1.371 5.156,-2.148 -1.367,-1.723 -2.578,-3.711 -4.18,-5.082 -1.367,-1.129 -3.359,-1.602 -6.597,-3.09 h 11.168 c 3.793,-5.309 0.551,-6.719 -2.27,-7.93 -0.969,-0.43 -1.91,-0.82 -2.5,-1.359 3.52,-1.492 7.031,-3.051 10.551,-4.531 -2.301,-2.469 -4.57,-4.848 -6.91,-7.27 h 13.898 c 0.082,-1.641 0.121,-2.891 -0.226,-3.949 -1.102,-3 -5.672,-4.762 -23.242,-11.442 8.75,0.661 17.5,1.25 26.281,1.911 2.429,-6.481 -1.75,-8 -5.891,-8.942 -8.172,-1.797 -16.41,-3.168 -24.57,-4.769 -0.551,-0.11 -1.02,-0.7 -0.121,-0.079 3.32,0 6.679,0.04 10.121,0.04 10.582,0.039 21.68,0.082 32.769,-0.192 2.692,-0.078 5.313,-2.109 8.012,-3.168 -1.922,-2.031 -3.402,-5.07 -5.75,-5.969 -7.891,-3.011 -16.133,-5.351 -26.09,-8.562 h 13.36 c 0.347,-2.77 0.66,-4.879 1.019,-7.418 3.82,-0.231 7.5,-0.473 11.129,-0.699 0,-6.84 -3.519,-9.223 -13.519,-10.121 -1.79,-3.481 -3.36,-6.332 -4.758,-9.141 h 10.117 c 0.582,-3.398 0.82,-5 0.152,-5.859 -0.582,-0.821 -1.953,-1.051 -4.57,-1.442 -9.691,-1.57 -19.492,-2.898 -29.141,-4.769 -1.371,-0.309 -3.281,-3.399 -3.16,-5.078 1.36,-17.543 3.039,-35 4.762,-52.5 0.348,-3.672 1.129,-7.301 1.797,-11.211 22.191,5.16 43.98,10.781 65.98,15.308 25.821,5.321 51.75,9.852 77.653,14.379 11.449,1.953 23.128,2.422 34.449,4.883 6.019,1.289 11.41,5.348 17,8.398 0.308,0.161 0.23,0.981 0.148,1.762 -0.039,0.348 -0.07,0.699 -0.07,0.969 -5.899,0.789 -11.68,1.488 -16.68,2.148 -2.699,5.981 0.071,7.66 3.039,9.532 1.762,1.101 3.602,2.23 4.461,4.3 -6.019,-0.898 -12.039,-1.718 -18.09,-2.73 -6.25,-1.02 -12.5,-2.461 -18.828,-3.25 -1.402,-0.149 -4.301,1.68 -4.301,2.66 0,1.719 1.25,4.488 2.661,5 6.949,2.301 14.097,4.02 18.75,5.352 3.359,4.058 4.879,7.617 7.578,8.867 7.461,3.48 15.39,5.902 23.121,8.793 -0.11,0.699 -0.231,1.398 -0.309,2.148 -5.39,-0.789 -10.902,-1.449 -16.332,-2.269 -7.808,-1.211 -15.469,-2.692 -23.277,-3.52 -1.402,-0.191 -2.891,0.629 -4.371,1.449 -0.711,0.352 -1.371,0.7 -2.031,0.981 1.441,2.109 2.808,4.219 4.371,6.211 0.55,0.699 1.679,1.129 2.539,1.359 5.199,1.258 9.058,3.289 12.89,7.969 3.75,4.73 11.129,6.449 17.891,10.039 -5.66,-0.469 -10.191,-0.859 -14.961,-1.25 0.23,9.07 2.148,15.902 12.031,17.82 -1.25,0.11 -2.461,0.313 -3.711,0.352 -1.172,0.109 -2.422,0.187 -3.91,0.23 -0.699,6.559 3.289,8.36 7.391,10.239 2.539,1.128 5.078,2.3 6.597,4.57 H 481.68 c 0.898,2.73 1.019,5.89 2.191,6.359 6.867,2.699 11.207,8.641 16.988,12.352 2.93,1.828 7.071,1.91 11.129,1.949 1.41,0 2.782,0.039 4.141,0.121 1.723,0.109 3.441,-0.16 5.199,-0.473 0.863,-0.117 1.684,-0.277 2.543,-0.347 -0.82,-1.879 -0.473,-3.949 -0.082,-6.02 0.551,-3.32 1.09,-6.64 -2.891,-9.062 -2.699,-1.598 -5.16,-3.629 -9.687,-6.879 9.059,0.75 15.98,1.332 22.891,1.879 1.328,-6.207 -1.911,-7.457 -5.473,-8.789 -2.07,-0.821 -4.289,-1.68 -5.699,-3.629 1.761,-1.723 3.98,-3.871 7.3,-7.071 0.43,-4.851 -3.082,-6.101 -6.91,-7.5 -2.851,-1.019 -5.82,-2.109 -7.582,-4.73 6.801,1.172 13.09,2.27 19.383,3.398 2.969,-6.839 -1.101,-7.847 -5.082,-8.828 -0.469,-0.121 -0.937,-0.23 -1.41,-0.351 -4.18,-1.207 -8.277,-2.457 -12.258,-4.489 13.828,1.641 27.688,3.282 41.359,4.84 2.04,-5.23 0.899,-7.851 -3.628,-9.41 -7.192,-2.5 -14.141,-5.359 -21.172,-9.14 0.742,0 1.48,0.031 2.269,0.07 1.75,0.082 3.512,0.16 5.231,-0.192 1.601,-0.269 4.41,-2.5 4.371,-2.617 -1.68,-3.121 -0.313,-3.832 1.918,-4.961 0.312,-0.16 0.66,-0.308 0.98,-0.511 3.629,-2.028 2.5,-5.079 -1.14,-6.559 -3.789,-1.602 -7.688,-3.199 -11.719,-4.34 -4.719,-1.25 -9.371,-1.09 -12.57,-6.558 -1.719,-2.93 -7.782,-3.282 -11.758,-5.782 5.226,0.469 10.508,0.942 15.816,1.481 2.152,-6.711 -1.598,-8.16 -5.277,-9.602 -1.442,-0.59 -2.891,-1.14 -3.903,-2.039 -1.558,-1.281 -3.238,-2.379 -4.918,-3.551 0.661,-0.308 1.321,-0.699 1.95,-1.089 1.41,-0.86 2.808,-1.68 4.14,-1.641 20.821,1.051 41.68,2.422 63.59,3.859 0.86,19.063 2.11,38.364 2.231,57.742 0.039,6.168 -1.68,13.079 -4.922,18.2 -1.641,2.66 -8.321,2.269 -14.098,3.519 0.039,1.012 0.348,3.781 0.578,6.832 -1.09,-0.121 -2.301,-0.269 -3.551,-0.429 -2.886,-0.43 -6.097,-0.864 -9.257,-0.743 -2.582,0.039 -5,2.032 -7.5,3.161 1.718,1.878 3.05,4.531 5.199,5.511 7.18,3.59 14.64,6.68 23.469,10.629 -1.329,0 -2.457,0 -3.508,-0.039 -2.153,-0.043 -3.871,-0.043 -5.551,0.109 -2.578,0.239 -5,1.02 -7.5,1.489 1.289,2.422 2.539,4.883 4.02,7.191 0.429,0.66 1.449,0.93 1.57,0.93 v 10.711 c -0.281,0.23 -0.789,0.578 -1.289,0.929 -1.25,0.821 -2.699,1.801 -2.582,2.469 0.351,1.949 2.261,4.063 4.062,5.192 4.688,2.968 9.688,5.55 14.528,8.281 -0.231,0.668 -0.469,1.25 -0.7,1.918 h -10.078 c -1.679,5.351 -0.351,8.781 4.571,10.539 5.468,1.922 5.468,6.019 5.468,10.351 0,0.75 0,1.489 0.039,2.231 0.039,2.969 0.942,6.519 2.77,8.75 2.109,2.578 5.512,4.18 8.601,5.59 1.79,0.859 4.532,1.32 6.09,0.5 1.051,-0.621 0.899,-3.672 1.289,-6.051 2.262,0.309 5.313,0.66 10.661,1.41 -1.75,-3.789 -2.301,-7.308 -4.141,-8.32 -6.91,-3.75 -8.359,-8.75 -4.957,-16.102 h 8.316 c 0.242,-1.289 0.391,-2.218 0.242,-3.039 -0.39,-2 -2.46,-3.679 -9.339,-9.148 7.808,-3.242 7.929,-4.762 0.308,-11.672 3.91,-0.199 7.192,-0.399 10.43,-0.551 0.121,-1.019 0.242,-1.797 0.121,-2.5 -0.391,-1.879 -2.539,-3.437 -10.551,-9.18 1.332,0 2.621,0 3.871,0.043 2.731,0.039 5.231,0.039 7.731,-0.121 2,-0.121 3.828,-1.05 5.75,-1.601 -1.332,-1.949 -2.27,-4.571 -4.141,-5.668 -4.219,-2.422 -8.91,-3.981 -13.32,-6.129 -1.02,-0.473 -1.531,-1.953 -3.012,-3.981 12.344,1.911 23.551,2.969 34.332,5.661 3.988,1.019 9.301,5.589 9.93,9.218 1.051,6.68 4.371,8.129 9.801,8.59 1.211,0.121 2.269,1.25 3.48,1.25 3.078,0 6.168,-0.351 9.328,-0.539 -1.051,-3.172 -2.148,-6.332 -3.199,-9.531 1.129,-0.32 3.75,-0.899 7.699,-1.84 -2.738,-3.949 -4.73,-6.801 -6.879,-9.84 2.731,-1.84 6.211,-4.18 10.078,-6.801 1.332,-6.988 -3.128,-8.16 -7.808,-9.41 -3.828,-1.019 -7.82,-2.07 -8.949,-6.449 6.289,1.211 11.839,2.621 17.418,3.238 1.562,0.16 3.211,-0.539 4.812,-1.289 0.699,-0.269 1.359,-0.578 2.027,-0.82 -1.488,-2.027 -2.5,-5.078 -4.527,-5.93 -6.172,-2.777 -12.82,-4.73 -19.223,-7 0.043,-0.66 0.153,-1.25 0.231,-1.91 3.32,0.59 6.723,1.09 10.082,1.723 3.32,0.66 6.598,1.91 10,2.148 1.059,0.11 2.23,-0.672 3.359,-1.41 0.508,-0.352 1.02,-0.699 1.52,-0.98 -1.129,-1.641 -1.91,-4.219 -3.43,-4.758 -6.449,-2.391 -13.09,-4.102 -19.609,-6.133 -0.781,-0.238 -1.571,-0.668 -2.352,-1.02 0.121,-0.66 0.321,-1.25 0.43,-1.91 3.992,0.742 7.973,2.031 11.961,2.031 h 0.191 c 3.867,0.071 9.098,0.149 11.207,-2.152 6.024,-6.367 5.203,-7.738 -3.238,-11.207 4.84,-3.211 4.922,-6.25 -0.27,-8.32 -6.25,-2.5 -12.89,-4.223 -20.468,-6.641 1.758,-0.59 2.34,-0.82 2.886,-0.98 2.543,-0.981 5.043,-1.989 7.622,-2.93 -1.719,-2.379 -2.969,-6.09 -5.321,-6.988 -5.66,-2.192 -5.82,-5.942 -4.57,-10.672 0.941,-3.512 2.031,-7.031 2.891,-10.07 50.39,-8.442 101.289,-14.071 141.41,-49.461 l -1.09,-2.848 c -5.789,2.379 -11.801,4.258 -17.231,7.269 -20.55,11.211 -42.738,17.61 -65.66,21.211 -18.051,2.848 -36.289,4.957 -54.5,6.36 -3.121,0.238 -6.25,0.508 -9.371,0.75 -22.93,1.828 -45.816,3.629 -68.75,3.429 -22.738,-0.191 -45.43,-3.589 -68.129,-5.66 -4.289,-0.429 -7.109,-7.691 -5.898,-14.058 0.711,-3.871 1.41,-7.852 1.14,-11.762 -0.203,-1.949 -2.621,-3.789 -4.031,-5.66 -1.519,2.031 -4.14,3.898 -4.371,6.012 -0.777,7.308 -0.738,14.687 -1.09,23.277 -12.929,-2.539 -24.258,-4.488 -35.508,-6.867 C 413.711,567.891 366.172,554.57 319.77,537.422 281.051,523.051 242.34,508.441 204.57,491.879 165.27,474.648 126.602,455.82 88.5195,436.09 63.6719,423.199 40.3086,407.422 16.0898,393.16 c -4.4101,-2.609 -9.60933,-3.859 -14.48824,-5.82 -4.45312,22.699 0.11719,41.019 16.51954,55.672 3.0898,2.808 5.5508,6.328 8.25,9.609 14.0977,16.988 31.75,28.707 52.418,36.641 32.3829,12.379 64.3709,25.738 96.6409,38.398 10.468,4.102 21.41,7.262 31.992,11.25 2.109,0.781 4.848,3.238 4.957,5 0.391,6.442 0.32,12.891 0.281,19.211 -0.039,2.231 -0.039,4.418 -0.039,6.609 -1.57,-0.082 -3.051,-0.16 -4.461,-0.281 -3.359,-0.187 -6.398,-0.39 -9.488,-0.269 -1.832,0.121 -3.633,1.761 -5.434,2.621 1.063,1.871 1.684,4.289 3.211,5.39 3.942,2.848 8.281,5.039 12.223,8.43 -6.793,-1.75 -13.512,-3.902 -20.391,-5.152 -1.832,-0.348 -3.871,0.269 -5.859,0.859 -0.902,0.274 -1.832,0.551 -2.692,0.742 1.168,2.621 2.301,5.231 4.25,9.61 -1.601,3.75 1.02,7.621 6.411,10.351 l 20.199,10.391 c -0.199,0.629 -0.36,1.25 -0.551,1.879 -8.051,-1.641 -16.019,-3.563 -24.059,-4.922 -1.679,-0.32 -3.48,0.191 -5.242,0.699 -0.816,0.192 -1.636,0.434 -2.457,0.582 1.367,2.891 2.071,7.11 4.34,8.289 8.828,4.531 18.199,8.121 27.258,13.321 -1.289,0 -2.609,-0.079 -3.938,-0.122 -3.05,-0.117 -6.101,-0.269 -8.992,0.274 -3.711,0.738 -7.109,2.93 -10.621,4.488 2.461,2.86 4.883,5.789 7.621,8.988 -0.078,0.192 -0.199,0.473 -0.359,0.782 -0.621,1.172 -1.602,3.09 -1.559,4.961 0.078,1.168 3.047,2.5 4.918,3.32 4.813,2.187 9.692,4.219 14.34,7.379 -1.09,0 -2.187,-0.039 -3.277,-0.039 -2.543,-0.071 -5.082,-0.153 -7.543,0.16 -2.028,0.309 -3.828,2.109 -5.739,3.238 1.36,2.031 2.379,4.571 4.219,5.903 0.699,0.468 1.481,0.777 2.301,1.097 2.148,0.852 4.18,1.68 3.012,5.5 -0.16,0.59 2.808,2.852 4.41,3.051 4.527,0.551 9.137,0.59 13.668,0.309 2.308,-0.149 4.57,-1.438 6.922,-2.219 -1.024,-2.621 -1.992,-5.238 -3.133,-8.25 8.25,-5.621 7.23,-9.68 -5.149,-15.82 6.911,-3.239 6.719,-6.168 -2.582,-14.25 1.442,0 2.731,0.031 3.903,0.031 2.429,0.078 4.301,0.121 6.097,-0.153 2.731,-0.429 7.223,-1.097 7.653,-2.5 0.551,-1.878 -0.192,-4.097 -0.852,-6.328 -0.32,-0.898 -0.59,-1.761 -0.789,-2.621 8.051,0.903 17.539,2.031 26.961,3.09 0.348,-2.848 0.539,-4.488 0.039,-5.898 -0.711,-1.993 -2.859,-3.481 -7.969,-7.032 2.149,-1.25 4.649,-2.73 7.149,-4.218 -1.84,-2.582 -3.32,-5.551 -5.668,-7.582 -2.301,-2.028 -5.543,-3.161 -8.512,-4.758 2.692,-7.153 -2,-10 -6.488,-12.742 -0.902,-0.539 -1.801,-1.09 -2.621,-1.68 l -0.071,-0.039 c -4.5,-3.078 -8.25,-5.66 -0.671,-11.25 -4.649,-1.289 -7.809,-2.18 -11.95,-3.32 0.59,-8.942 1.25,-18.469 1.95,-28.79 15.98,4.809 31.882,9.61 47.742,14.5 12.969,3.981 12.929,4.098 12.258,16.75 l -0.039,0.711 c -0.7,14.411 -1.051,28.899 -1.559,43.321 -0.039,1.988 0,3.937 0,5.269 0,0.469 0,0.899 0,1.168 -6.801,2.391 -12.34,4.34 -17.852,6.332 0.981,1.949 1.95,3.989 2.969,5.938 l -1.098,-0.348 v 16.328 c -4.761,-0.59 -9.57,-1.609 -14.41,-1.719 -1.601,-0.039 -3.199,0.7 -4.84,1.442 -0.75,0.348 -1.449,0.668 -2.191,0.937 1.25,1.95 2.461,3.981 3.711,5.942 0.699,1.129 1.41,2.379 2.379,3.359 2.152,2.031 4.101,4.84 6.723,5.699 6.25,2.11 12.886,3.012 19.179,4.922 2.379,0.699 4.258,3.008 6.328,4.649 -0.347,0.468 -0.781,0.941 -1.129,1.41 -2.539,0 -5.082,0 -7.66,-0.039 -6.84,0 -13.672,-0.039 -20.468,0.148 -2.032,0.082 -4.063,1.801 -6.09,2.821 1.437,1.71 2.687,3.75 4.41,5.07 1.918,1.41 4.297,2.148 5.738,2.859 -1.32,1.281 -3.941,2.813 -3.941,4.211 0,1.918 1.601,4.731 3.32,5.512 5.742,2.738 11.762,4.687 16.992,6.719 -2.152,1.8 -4.57,3.75 -7.031,5.781 4.02,3.047 8.012,6.019 11.559,8.707 0.32,2.422 0.671,5.551 1.101,8.562 -1.609,1.438 -5.512,3.239 -6.14,5.86 -0.469,1.719 1.058,3.75 2.859,6.129 0.742,0.98 1.562,2.031 2.262,3.16 z M 1162.03,509.059 c -15.58,3.32 -31.17,7.031 -46.87,9.89 -19.65,3.59 -39.3,7.5 -59.11,9.531 -32.07,3.36 -64.249,5.469 -96.359,7.61 -16.14,1.101 -32.5,2.031 -48.64,1.332 -26.211,-1.133 -52.461,-3.512 -78.672,-5.781 -64.258,-5.59 -127.18,-18.282 -188.359,-38.789 -29.098,-9.801 -57.731,-20.942 -85.821,-33.321 -21.32,-9.41 -41.359,-21.761 -61.949,-32.851 -4.34,-2.34 -7.891,-0.551 -9.57,5 -3.871,13.242 3.32,29.879 15.429,36.84 31.762,18.242 65.27,32.73 100.43,42.46 33.871,9.329 68.32,16.68 102.77,23.282 23.48,4.527 47.421,6.679 71.211,9.179 19.73,2.11 39.531,3.59 59.378,4.528 28.59,1.371 57.262,2.23 85.942,2.972 6.32,0.188 9.019,1.329 7.219,8.547 -1.559,6.172 -0.969,12.813 -1.911,19.184 -0.468,3.277 -2.148,6.367 -2.699,10 -2.301,1.988 -5.5,1.637 -8.828,1.289 -4.801,-0.473 -9.84,-0.981 -12.851,5.508 -0.661,-0.039 -1.36,-0.078 -2.149,-0.16 -2.422,-0.188 -5.391,-0.469 -8.351,-0.309 -2.27,0.121 -4.54,1.25 -6.801,1.91 0.781,2.27 1.64,4.57 2.383,6.84 -1.602,0.078 -3.872,0.199 -6.372,0.352 -2.07,4.488 -0.781,7.027 3.95,8.828 9.57,3.59 19.14,7.461 29.492,11.558 -2.152,0.242 -3.633,0.082 -4.801,0.672 -1.449,0.66 -3.359,1.789 -3.601,2.93 -0.192,1.25 1.019,3.32 2.269,4.101 4.731,3.039 9.731,5.661 15.902,9.18 -8.05,-0.351 -9.339,3.199 -6.839,9.289 H 905.27 c 1.679,3.871 2.929,6.801 4.07,9.379 -1.328,1.25 -2.93,2.77 -4.539,4.301 1.648,1.398 3.09,3.199 4.929,4.25 4.489,2.582 9.29,4.5 13.59,7.23 1.758,1.09 2.461,3.711 4.649,7.379 l 8.242,-6.437 c -0.313,-0.391 -0.66,-0.821 -0.981,-1.172 h 10.86 c 1.84,-4.809 -0.738,-6.25 -3.75,-7.93 -1.828,-1.019 -3.86,-2.148 -5.11,-4.18 1.29,0.071 2.5,0.071 3.629,0.071 2.34,0 4.34,0 6.02,0.711 6.711,2.808 7.851,0 6.91,-5.203 3.16,-0.821 6.25,-1.637 9.371,-2.5 -2.539,-2.809 -4.64,-6.129 -7.648,-8.2 -4.891,-3.48 -10.313,-6.089 -16.492,-9.609 13.64,2.379 26.101,4.531 38.32,6.68 2.39,-6.989 -1.442,-8.36 -5.149,-9.692 l -0.281,-0.078 c -10.539,-3.781 -21.09,-7.539 -31.398,-12.461 9.648,1.289 19.289,2.5 28.898,3.992 5.32,0.821 8.399,0.039 6.61,-6.453 2.218,-0.269 4.371,-0.539 6.48,-0.816 0.43,-0.582 0.859,-1.25 1.25,-1.871 -1.871,-1.723 -3.52,-4.141 -5.781,-5.039 -7.891,-3.051 -16.02,-5.551 -25.86,-8.91 1.641,0 3.121,0.039 4.45,0.039 2.972,0.039 5.32,0.039 7.66,-0.082 2.152,-0.11 4.222,-0.661 6.371,-1.008 -1.25,-2.153 -2.07,-5.59 -3.871,-6.332 -9.34,-3.52 -19.02,-6.367 -28.559,-9.449 -0.39,-0.122 -0.82,-0.43 -0.699,-0.391 v -35.981 c 33.199,-2.378 65.269,-4.726 98.829,-7.148 -2.38,2.07 -3.59,3.629 -5.12,4.449 -4.29,2.27 -4.84,5.629 -4.02,10.039 1.25,6.723 1.99,13.563 2.69,18.641 -2.07,0 -4.14,-0.117 -6.21,-0.238 -4.45,-0.231 -8.79,-0.512 -12.81,0.55 -5.66,1.481 -4.3,3.668 -2.93,5.86 0.7,1.09 1.37,2.179 1.21,3.199 -0.35,4.648 -0.7,9.34 -1.05,14.531 -6.53,-1.011 -12.972,-2.031 -19.999,-3.16 -0.039,0.578 -0.16,1.168 -0.242,1.68 -0.188,1.09 -0.387,1.988 -0.039,2.258 5.781,4.812 6.679,14.101 16.1,16.019 8.55,1.762 16.79,5.434 25.08,8.473 1.44,0.551 2.46,2.187 3.71,3.328 -0.55,0.152 -1.1,0.351 -1.64,0.582 -1.22,0.43 -2.39,0.859 -3.52,0.738 -11.91,-1.597 -23.83,-3.508 -35.738,-5.308 -0.352,2.699 -0.551,4.3 -0.043,5.629 0.742,1.949 2.972,3.32 8.441,6.64 -4.539,2.539 -6.019,5.539 -0.82,8.711 5.58,3.399 11.56,6.328 16.56,9.059 -1.72,1.449 -5.31,3.121 -5.31,4.769 0.07,2.141 2.69,5.852 4.64,6.129 8.52,1.332 4.77,10.192 8.72,12.774 -2.7,1.839 -5.2,3.597 -7.7,5.308 1.8,2.539 3.59,5.121 5.9,8.442 -2.5,2.578 -2.38,5.507 2.85,8.046 3.48,1.68 5.9,5.313 9.3,7.301 1.17,0.672 2.81,0.629 4.45,0.59 0.82,-0.039 1.6,-0.078 2.34,0 -1.13,-2.027 -2.3,-4.059 -3.43,-6.019 -0.36,-0.622 -0.82,-1.129 -2.04,-2.731 1.14,0.191 2.11,0.43 3.05,0.66 1.99,0.43 3.63,0.821 5.24,0.75 2.26,-0.121 4.41,-1.371 6.6,-2.148 -1.25,-1.84 -2.39,-3.68 -3.79,-5.43 -0.74,-0.902 -1.84,-1.41 -2.74,-2.152 3.4,-0.699 6.53,-1.367 11.37,-2.309 -3.83,-3.199 -6.25,-5.191 -10.08,-8.359 4.77,-0.352 7.58,-0.5 11.8,-0.821 -0.94,-2.96 -1.84,-5.582 -2.77,-8.39 2.42,-0.121 5.78,-0.32 9.06,-0.469 0.08,-0.75 0.12,-1.371 0.04,-1.961 -0.39,-2.379 -3.63,-4.332 -20.39,-14.449 l 9.14,1.598 c 3.16,0.55 6.25,1.371 9.41,1.562 1.56,0.078 3.24,-0.23 4.89,-0.582 0.7,-0.117 1.36,-0.269 2.07,-0.391 -1.61,-2.109 -2.86,-5.347 -5,-6.168 -8.87,-3.402 -18.05,-6.101 -27.11,-9.031 -0.9,-0.269 -1.8,-0.39 -2.5,-2.07 7.57,1.25 15.11,2.621 22.69,3.832 8.52,1.367 16.99,2.769 25.51,3.629 1.29,0.121 2.73,-0.93 4.14,-1.949 0.63,-0.43 1.21,-0.86 1.84,-1.211 -1.21,-1.84 -1.92,-4.731 -3.6,-5.508 -8.87,-4.024 -17.93,-7.621 -26.87,-11.293 1.17,-1.598 3.47,-0.899 5.78,-0.231 3.67,1.09 7.34,2.153 6.13,-6.207 0.47,-0.121 0.98,-0.351 1.45,-0.351 1.13,-0.078 2.54,-0.078 3.94,-0.039 3.01,0.07 6.02,0.148 6.49,-0.86 1.68,-4.07 -1.18,-5.082 -4.03,-6.062 -1.05,-0.348 -2.15,-0.738 -2.97,-1.289 -2.3,-1.559 -5.43,-2.07 -8.16,-3.039 -0.59,-2.539 -1.25,-5.199 -1.91,-8.09 0.23,0 0.5,0 0.82,0.039 0.82,0.039 1.87,0.121 2.89,-0.121 2.22,-0.43 4.33,-1.129 6.48,-1.719 -1.6,-1.91 -2.85,-5 -4.8,-5.621 -8.6,-2.66 -17.43,-4.687 -27,-7.187 v -44.223 c 40.82,-6.09 80.51,-13.828 119.3,-25.617 z M 604.879,649.961 c 5.16,10.199 6.172,22.539 18.832,27.461 -2.461,0.199 -4.883,0.348 -7.152,0.547 -2.61,8.051 3.32,11.211 8.171,13.16 6.989,2.891 7.258,7.851 7.571,13.562 0.039,1.047 0.121,2.11 0.238,3.2 -6.559,-2.032 -12.309,-3.832 -17.969,-5.551 -0.23,-2.141 -0.468,-4.059 -0.781,-6.211 -6.91,-1.25 -13.559,-2.5 -21.719,-3.981 4.219,-27.66 3.2,-54.847 -2.691,-81.839 17.031,-0.778 32.07,-1.438 48.16,-2.188 -0.738,7.82 -1.328,14.539 -1.719,19.301 -10.941,2.699 -19.879,4.848 -28.519,6.918 -1.641,6.359 1.918,7.851 5.508,9.332 2.152,0.898 4.3,1.797 5.39,3.707 -4.14,0.902 -8.277,1.601 -13.32,2.582 z M 187.07,930.738 c 50.16,50.16 107.77,89.032 172.809,116.532 67.391,28.47 137.93,42.73 211.68,42.73 73.711,0 144.3,-14.26 211.64,-42.73 65.039,-27.5 122.66,-66.372 172.821,-116.532 38.941,-38.937 71.05,-82.34 96.36,-130.226 l -6.79,7.187 -3.25,3 -8.94,7.391 -1.88,1.441 -1.05,0.739 -18.99,13.519 -9.53,6.762 v 0.039 c -18.122,26.359 -38.712,51.129 -61.829,74.25 -48.09,48.09 -103.32,85.32 -165.672,111.72 -64.57,27.31 -132.179,40.94 -202.89,40.94 -70.7,0 -138.36,-13.63 -202.93,-40.94 -62.34,-26.4 -117.578,-63.63 -165.66,-111.72 -7.848,-7.852 -15.391,-15.891 -22.66,-24.102 l -0.661,-0.347 -10.429,-5.59 -10.348,-5.621 -10.351,-5.7 -10.36,-5.75 -9.019,-5.109 c 17.269,24.059 36.558,46.758 57.929,68.117 z M 1072.58,334.609 C 1045.04,269.531 1006.21,211.91 956.02,161.762 905.859,111.602 848.238,72.7305 783.199,45.2305 715.859,16.7617 645.27,2.5 571.559,2.5 497.809,2.5 427.27,16.7617 359.879,45.2305 294.84,72.7305 237.23,111.602 187.07,161.762 136.879,211.91 98.0508,269.531 70.5508,334.609 64.8398,348.051 59.7305,361.602 55.1992,375.27 l 19.961,11.332 C 79.8398,372.031 85.1992,357.621 91.25,343.359 117.621,280.98 154.84,225.781 202.969,177.66 251.051,129.57 306.289,92.3398 368.629,65.9414 433.199,38.6289 500.859,25 571.559,25 c 70.711,0 138.32,13.6289 202.89,40.9414 62.352,26.3984 117.582,63.6286 165.672,111.7186 48.117,48.121 85.349,103.32 111.719,165.699 19.76,46.68 32.34,94.922 37.81,144.801 l 7.73,-1.398 11.45,-2.114 1.01,-0.199 2,-0.347 c -5.79,-51.481 -18.91,-101.332 -39.26,-149.493 z M 27.8086,546.25 c 0,50.629 6.6797,99.73 20.1211,147.34 l 21.0508,-8.16 c -12.461,-45 -18.711,-91.41 -18.711,-139.18 0,-10.199 0.3203,-20.309 0.8594,-30.391 l -6.75,-4.218 -9.9687,-5.942 -2.7305,-1.789 -2.1914,-1.57 c -1.1289,14.5 -1.6797,29.14 -1.6797,43.91 z"
         clip-rule="evenodd"
         id="path22" />
    </clipPath>
    <linearGradient
       x1="-53.1362"
       y1="72.499496"
       x2="205.60899"
       y2="72.499496"
       gradientUnits="userSpaceOnUse"
       gradientTransform="matrix(7.5,0,0,-7.5,-0.227505,1090)"
       spreadMethod="pad"
       id="linearGradient30">
      <stop
         style="stop-opacity:1;stop-color:#bdc3c7"
         offset="0"
         id="stop26" />
      <stop
         style="stop-opacity:1;stop-color:#767a7c"
         offset="1"
         id="stop28" />
    </linearGradient>
  </defs>
  <sodipodi:namedview
     id="namedview4"
     pagecolor="#ffffff"
     bordercolor="#000000"
     borderopacity="0.25"
     inkscape:showpageshadow="2"
     inkscape:pageopacity="0.0"
     inkscape:pagecheckerboard="0"
     inkscape:deskcolor="#d1d1d1" />
  <g
     id="g8"
     inkscape:groupmode="layer"
     inkscape:label="ink_ext_XXXXXX"
     transform="matrix(1.3333333,0,0,-1.3333333,0,145.33333)">
    <g
       id="g10"
       transform="scale(0.1)">
      <g
         id="g12">
        <g
           id="g14"
           clip-path="url(#clipPath18)">
          <g
             id="g20"
             clip-path="url(#clipPath24)">
            <path
               d="m 550,2 v 1 h -16 v 1 h -15 v 1 h -8 v 1 h -7 v 1 h -7 v 1 h -6 v 1 h -7 v 1 h -7 v 1 h -6 v 1 h -7 v 1 h -4 v 1 h -4 v 1 h -4 v 1 h -4 v 1 h -4 v 1 h -4 v 1 h -4 v 1 h -4 v 1 h -4 v 1 h -4 v 1 h -4 v 1 h -3 v 1 h -4 v 1 h -4 v 1 h -3 v 1 h -3 v 1 h -2 v 1 h -3 v 1 h -3 v 1 h -3 v 1 h -3 v 1 h -3 v 1 h -3 v 1 h -3 v 1 h -2 v 1 h -3 v 1 h -3 v 1 h -3 v 1 h -2 v 1 h -2 v 1 h -3 v 1 h -2 v 1 h -2 v 1 h -3 v 1 h -2 v 1 h -3 v 1 h -2 v 1 h -2 v 1 h -2 v 1 h -2 v 1 h -2 v 1 h -2 v 1 h -2 v 1 h -2 v 1 h -2 v 1 h -2 v 1 h -2 v 1 h -2 v 1 h -2 v 1 h -2 v 1 h -2 v 1 h -2 v 1 h -2 v 1 h -2 v 1 h -2 v 1 h -2 v 1 h -1 v 1 h -2 v 1 h -2 v 1 h -1 v 1 h -2 v 1 h -2 v 1 h -1 v 1 h -2 v 1 h -2 v 1 h -1 v 1 h -2 v 1 h -1 v 1 h -2 v 1 h -2 v 1 h -1 v 1 h -2 v 1 h -2 v 1 h -1 v 1 h -2 v 1 h -2 v 1 h -1 v 1 h -2 v 1 h -2 v 1 h -1 v 1 h -2 v 1 h -2 v 1 h -1 v 1 h -1 v 1 h -2 v 1 h -1 v 1 h -1 v 1 h -2 v 1 h -1 v 1 h -1 v 1 h -2 v 1 h -1 v 1 h -1 v 1 h -2 v 1 h -1 v 1 h -1 v 1 h -2 v 1 h -1 v 1 h -1 v 1 h -2 v 1 h -1 v 1 h -1 v 1 h -2 v 1 h -1 v 1 h -1 v 1 h -2 v 1 h -1 v 1 h -1 v 1 h -2 v 1 h -1 v 1 h -1 v 1 h -2 v 1 h -1 v 1 h -1 v 1 h -1 v 1 h -2 v 1 h -1 v 1 h -1 v 1 h -1 v 1 h -1 v 1 h -1 v 1 h -1 v 1 h -1 v 1 h -2 v 1 h -1 v 1 h -1 v 1 h -1 v 1 h -1 v 1 h -1 v 1 h -1 v 1 h -2 v 1 h -1 v 1 h -1 v 1 h -1 v 1 h -1 v 1 h -1 v 1 h -1 v 1 h -1 v 1 h -2 v 1 h -1 v 1 h -1 v 1 h -1 v 1 h -1 v 1 h -1 v 1 h -1 v 1 h -1 v 1 h -1 v 1 h -1 v 1 h -1 v 1 h -1 v 1 h -1 v 1 h -1 v 1 h -1 v 1 h -1 v 1 h -1 v 1 h -1 v 1 h -1 v 1 h -1 v 1 h -1 v 2 h -1 v 1 h -1 v 1 h -1 v 1 h -1 v 1 h -1 v 1 h -1 v 1 h -1 v 2 h -1 v 1 h -1 v 1 h -1 v 1 h -1 v 1 h -1 v 1 h -1 v 1 h -1 v 1 h -1 v 2 h -1 v 1 h -1 v 1 h -1 v 1 h -1 v 1 h -1 v 1 h -1 v 1 h -1 v 2 h -1 v 1 h -1 v 1 h -1 v 1 h -1 v 1 h -1 v 2 h -1 v 1 h -1 v 1 h -1 v 2 h -1 v 1 h -1 v 1 h -1 v 2 h -1 v 1 h -1 v 1 h -1 v 2 h -1 v 1 h -1 v 1 h -1 v 2 h -1 v 1 h -1 v 1 h -1 v 2 h -1 v 1 h -1 v 1 h -1 v 2 h -1 v 1 h -1 v 1 h -1 v 2 h -1 v 1 h -1 v 1 h -1 v 2 h -1 v 1 h -1 v 1 h -1 v 2 h -1 v 1 h -1 v 2 h -1 v 1 h -1 v 2 h -1 v 2 h -1 v 1 h -1 v 2 h -1 v 2 h -1 v 1 h -1 v 2 h -1 v 1 h -1 v 2 h -1 v 2 h -1 v 1 h -1 v 2 h -1 v 2 h -1 v 1 h -1 v 2 h -1 v 2 h -1 v 1 h -1 v 2 h -1 v 2 h -1 v 1 h -1 v 2 h -1 v 2 h -1 v 1 h -1 v 2 h -1 v 2 h -1 v 1 h -1 v 2 h -1 v 2 h -1 v 2 h -1 v 2 h -1 v 2 h -1 v 2 h -1 v 2 h -1 v 2 h -1 v 2 h -1 v 2 h -1 v 2 h -1 v 2 h -1 v 2 h -1 v 2 h -1 v 2 h -1 v 2 h -1 v 2 h -1 v 3 h -1 v 2 h -1 v 2 h -1 v 3 h -1 v 2 h -1 v 2 h -1 v 3 h -1 v 2 h -1 v 3 h -1 v 3 h -1 v 2 h -1 v 3 h -1 v 3 h -1 v 2 h -1 v 3 h -1 v 3 h -1 v 2 h -1 v 3 h -1 v 3 h -1 v 2 h -1 v 4 h 1 v 1 h 2 v 1 h 2 v 1 h 1 v 1 h 2 v 1 h 2 v 1 h 2 v 1 h 1 v 1 h 2 v 1 h 2 v 1 h 2 v 1 h 2 v -3 h 1 v -2 h 1 v -3 h 1 v -3 h 1 v -2 h 1 v -3 h 1 v -3 h 1 v -2 h 1 v -3 h 1 v -3 h 1 v -3 h 1 v -2 h 1 v -3 h 1 v -3 h 1 v -2 h 1 v -3 h 1 v -2 h 1 v -2 h 1 v -3 h 1 v -2 h 1 v -2 h 1 v -2 h 1 v -2 h 1 v -2 h 1 v -2 h 1 v -2 h 1 v -2 h 1 v -2 h 1 v -2 h 1 v -2 h 1 v -2 h 1 v -2 h 1 v -2 h 1 v -2 h 1 v -2 h 1 v -2 h 1 v -2 h 1 v -2 h 1 v -2 h 1 v -2 h 1 v -1 h 1 v -2 h 1 v -2 h 1 v -1 h 1 v -2 h 1 v -2 h 1 v -1 h 1 v -2 h 1 v -2 h 1 v -1 h 1 v -2 h 1 v -2 h 1 v -1 h 1 v -2 h 1 v -2 h 1 v -1 h 1 v -2 h 1 v -2 h 1 v -1 h 1 v -2 h 1 v -1 h 1 v -2 h 1 v -2 h 1 v -1 h 1 v -2 h 1 v -1 h 1 v -1 h 1 v -2 h 1 v -1 h 1 v -1 h 1 v -2 h 1 v -1 h 1 v -1 h 1 v -2 h 1 v -1 h 1 v -1 h 1 v -2 h 1 v -1 h 1 v -1 h 1 v -2 h 1 v -1 h 1 v -1 h 1 v -2 h 1 v -1 h 1 v -1 h 1 v -2 h 1 v -1 h 1 v -2 h 1 v -1 h 1 v -1 h 1 v -2 h 1 v -1 h 1 v -1 h 1 v -2 h 1 v -1 h 1 v -1 h 1 v -1 h 1 v -1 h 1 v -1 h 1 v -1 h 1 v -1 h 1 v -2 h 1 v -1 h 1 v -1 h 1 v -1 h 1 v -1 h 1 v -1 h 1 v -1 h 1 v -2 h 1 v -1 h 1 v -1 h 1 v -1 h 1 v -1 h 1 v -1 h 1 v -1 h 1 v -1 h 1 v -2 h 1 v -1 h 1 v -1 h 1 v -1 h 1 v -1 h 1 v -1 h 1 v -1 h 1 v -1 h 1 v -1 h 1 v -1 h 1 v -1 h 1 v -1 h 1 v -1 h 1 v -1 h 1 v -1 h 1 v -1 h 1 v -1 h 1 v -1 h 1 v -1 h 1 v -1 h 1 v -1 h 1 v -1 h 1 v -1 h 1 v -1 h 2 v -1 h 1 v -1 h 1 v -1 h 1 v -1 h 1 v -1 h 1 v -1 h 1 v -1 h 2 v -1 h 1 v -1 h 1 v -1 h 1 v -1 h 1 v -1 h 1 v -1 h 1 v -1 h 2 v -1 h 1 v -1 h 1 v -1 h 1 v -1 h 1 v -1 h 1 v -1 h 1 v -1 h 1 v -1 h 2 v -1 h 1 v -1 h 1 v -1 h 2 v -1 h 1 v -1 h 1 v -1 h 2 v -1 h 1 v -1 h 1 v -1 h 2 v -1 h 1 v -1 h 1 v -1 h 2 v -1 h 1 v -1 h 1 v -1 h 2 v -1 h 1 v -1 h 1 v -1 h 2 v -1 h 1 v -1 h 1 v -1 h 2 v -1 h 1 v -1 h 1 v -1 h 2 v -1 h 1 v -1 h 1 v -1 h 2 v -1 h 1 v -1 h 1 v -1 h 2 v -1 h 2 v -1 h 1 v -1 h 2 v -1 h 2 v -1 h 1 v -1 h 2 v -1 h 2 v -1 h 1 v -1 h 2 v -1 h 2 v -1 h 1 v -1 h 2 v -1 h 2 v -1 h 1 v -1 h 2 v -1 h 1 v -1 h 2 v -1 h 2 v -1 h 1 v -1 h 2 v -1 h 2 v -1 h 1 v -1 h 2 v -1 h 2 v -1 h 1 v -1 h 2 v -1 h 2 v -1 h 2 v -1 h 2 v -1 h 2 v -1 h 2 v -1 h 2 v -1 h 2 v -1 h 2 v -1 h 2 v -1 h 2 v -1 h 2 v -1 h 2 v -1 h 2 v -1 h 2 v -1 h 2 v -1 h 2 v -1 h 3 v -1 h 2 v -1 h 2 v -1 h 3 v -1 h 2 v -1 h 2 v -1 h 3 v -1 h 2 v -1 h 2 v -1 h 3 v -1 h 3 v -1 h 2 v -1 h 3 v -1 h 3 v -1 h 3 v -1 h 3 v -1 h 3 v -1 h 3 v -1 h 3 v -1 h 3 v -1 h 2 v -1 h 3 v -1 h 3 v -1 h 4 v -1 h 4 v -1 h 4 v -1 h 4 v -1 h 4 v -1 h 4 v -1 h 4 v -1 h 4 v -1 h 3 v -1 h 4 v -1 h 4 v -1 h 4 v -1 h 5 v -1 h 6 v -1 h 7 v -1 h 7 v -1 h 7 v -1 h 6 v -1 h 7 v -1 h 7 v -1 h 11 v -1 h 16 v -1 h 15 v -1 h 25 v 1 h 16 v 1 h 15 v 1 h 11 v 1 h 7 v 1 h 7 v 1 h 7 v 1 h 6 v 1 h 7 v 1 h 7 v 1 h 6 v 1 h 5 v 1 h 4 v 1 h 4 v 1 h 4 v 1 h 4 v 1 h 3 v 1 h 4 v 1 h 4 v 1 h 4 v 1 h 4 v 1 h 4 v 1 h 4 v 1 h 4 v 1 h 3 v 1 h 3 v 1 h 3 v 1 h 2 v 1 h 3 v 1 h 3 v 1 h 3 v 1 h 3 v 1 h 3 v 1 h 3 v 1 h 3 v 1 h 2 v 1 h 3 v 1 h 3 v 1 h 2 v 1 h 2 v 1 h 3 v 1 h 2 v 1 h 2 v 1 h 3 v 1 h 2 v 1 h 3 v 1 h 2 v 1 h 2 v 1 h 2 v 1 h 2 v 1 h 2 v 1 h 2 v 1 h 2 v 1 h 2 v 1 h 2 v 1 h 2 v 1 h 2 v 1 h 2 v 1 h 2 v 1 h 2 v 1 h 2 v 1 h 2 v 1 h 2 v 1 h 2 v 1 h 1 v 1 h 2 v 1 h 2 v 1 h 1 v 1 h 2 v 1 h 2 v 1 h 1 v 1 h 2 v 1 h 2 v 1 h 1 v 1 h 2 v 1 h 2 v 1 h 1 v 1 h 2 v 1 h 2 v 1 h 1 v 1 h 2 v 1 h 1 v 1 h 2 v 1 h 2 v 1 h 1 v 1 h 2 v 1 h 2 v 1 h 1 v 1 h 2 v 1 h 2 v 1 h 1 v 1 h 1 v 1 h 2 v 1 h 1 v 1 h 1 v 1 h 2 v 1 h 1 v 1 h 1 v 1 h 2 v 1 h 1 v 1 h 1 v 1 h 2 v 1 h 1 v 1 h 1 v 1 h 2 v 1 h 1 v 1 h 1 v 1 h 2 v 1 h 1 v 1 h 1 v 1 h 2 v 1 h 1 v 1 h 1 v 1 h 2 v 1 h 1 v 1 h 1 v 1 h 2 v 1 h 1 v 1 h 1 v 1 h 2 v 1 h 1 v 1 h 1 v 1 h 1 v 1 h 1 v 1 h 1 v 1 h 1 v 1 h 2 v 1 h 1 v 1 h 1 v 1 h 1 v 1 h 1 v 1 h 1 v 1 h 1 v 1 h 2 v 1 h 1 v 1 h 1 v 1 h 1 v 1 h 1 v 1 h 1 v 1 h 1 v 1 h 1 v 1 h 2 v 1 h 1 v 1 h 1 v 1 h 1 v 1 h 1 v 1 h 1 v 1 h 1 v 1 h 1 v 1 h 1 v 1 h 1 v 1 h 1 v 1 h 1 v 1 h 1 v 1 h 1 v 1 h 1 v 1 h 1 v 1 h 1 v 1 h 1 v 1 h 1 v 1 h 1 v 1 h 1 v 1 h 1 v 1 h 1 v 1 h 1 v 1 h 1 v 2 h 1 v 1 h 1 v 1 h 1 v 1 h 1 v 1 h 1 v 1 h 1 v 1 h 1 v 2 h 1 v 1 h 1 v 1 h 1 v 1 h 1 v 1 h 1 v 1 h 1 v 1 h 1 v 1 h 1 v 2 h 1 v 1 h 1 v 1 h 1 v 1 h 1 v 1 h 1 v 1 h 1 v 1 h 1 v 2 h 1 v 1 h 1 v 1 h 1 v 2 h 1 v 1 h 1 v 1 h 1 v 2 h 1 v 1 h 1 v 1 h 1 v 2 h 1 v 1 h 1 v 1 h 1 v 2 h 1 v 1 h 1 v 1 h 1 v 2 h 1 v 1 h 1 v 1 h 1 v 2 h 1 v 1 h 1 v 1 h 1 v 2 h 1 v 1 h 1 v 1 h 1 v 2 h 1 v 1 h 1 v 1 h 1 v 2 h 1 v 1 h 1 v 1 h 1 v 2 h 1 v 2 h 1 v 1 h 1 v 2 h 1 v 2 h 1 v 1 h 1 v 2 h 1 v 2 h 1 v 1 h 1 v 2 h 1 v 2 h 1 v 1 h 1 v 2 h 1 v 2 h 1 v 1 h 1 v 2 h 1 v 2 h 1 v 1 h 1 v 2 h 1 v 1 h 1 v 2 h 1 v 2 h 1 v 1 h 1 v 2 h 1 v 2 h 1 v 1 h 1 v 2 h 1 v 2 h 1 v 2 h 1 v 2 h 1 v 2 h 1 v 2 h 1 v 2 h 1 v 2 h 1 v 2 h 1 v 2 h 1 v 2 h 1 v 2 h 1 v 2 h 1 v 2 h 1 v 2 h 1 v 2 h 1 v 2 h 1 v 3 h 1 v 2 h 1 v 2 h 1 v 3 h 1 v 2 h 1 v 3 h 1 v 2 h 1 v 2 h 1 v 3 h 1 v 3 h 1 v 2 h 1 v 3 h 1 v 3 h 1 v 2 h 1 v 3 h 1 v 3 h 1 v 3 h 1 v 2 h 1 v 3 h 1 v 4 h 1 v 3 h 1 v 3 h 1 v 4 h 1 v 3 h 1 v 3 h 1 v 4 h 1 v 3 h 1 v 3 h 1 v 4 h 1 v 4 h 1 v 5 h 1 v 4 h 1 v 5 h 1 v 4 h 1 v 5 h 1 v 4 h 1 v 5 h 1 v 6 h 1 v 6 h 1 v 6 h 1 v 6 h 1 v 8 h 1 v 6 h 2 v -1 h 6 v -1 h 5 v -1 h 5 v -1 h 5 v -9 h -1 v -7 h -1 v -6 h -1 v -6 h -1 v -6 h -1 v -6 h -1 v -5 h -1 v -4 h -1 v -5 h -1 v -4 h -1 v -5 h -1 v -4 h -1 v -4 h -1 v -5 h -1 v -4 h -1 v -3 h -1 v -3 h -1 v -4 h -1 v -3 h -1 v -3 h -1 v -3 h -1 v -4 h -1 v -3 h -1 v -3 h -1 v -4 h -1 v -3 h -1 v -2 h -1 v -3 h -1 v -3 h -1 v -3 h -1 v -2 h -1 v -3 h -1 v -3 h -1 v -2 h -1 v -3 h -1 v -3 h -1 v -2 h -1 v -3 h -1 v -2 h -1 v -2 h -1 v -3 h -1 v -2 h -1 v -2 h -1 v -3 h -1 v -2 h -1 v -2 h -1 v -2 h -1 v -2 h -1 v -2 h -1 v -2 h -1 v -2 h -1 v -2 h -1 v -2 h -1 v -2 h -1 v -2 h -1 v -2 h -1 v -2 h -1 v -2 h -1 v -2 h -1 v -2 h -1 v -2 h -1 v -2 h -1 v -2 h -1 v -1 h -1 v -2 h -1 v -2 h -1 v -1 h -1 v -2 h -1 v -2 h -1 v -1 h -1 v -2 h -1 v -1 h -1 v -2 h -1 v -2 h -1 v -1 h -1 v -2 h -1 v -2 h -1 v -1 h -1 v -2 h -1 v -2 h -1 v -1 h -1 v -2 h -1 v -2 h -1 v -1 h -1 v -2 h -1 v -2 h -1 v -1 h -1 v -2 h -1 v -2 h -1 v -1 h -1 v -1 h -1 v -2 h -1 v -1 h -1 v -1 h -1 v -2 h -1 v -1 h -1 v -1 h -1 v -2 h -1 v -1 h -1 v -1 h -1 v -2 h -1 v -1 h -1 v -1 h -1 v -2 h -1 v -1 h -1 v -1 h -1 v -2 h -1 v -1 h -1 v -1 h -1 v -2 h -1 v -1 h -1 v -1 h -1 v -2 h -1 v -1 h -1 v -1 h -1 v -2 h -1 v -1 h -1 v -1 h -1 v -2 h -1 v -1 h -1 v -1 h -1 v -1 h -1 v -2 h -1 v -1 h -1 v -1 h -1 v -1 h -1 v -1 h -1 v -1 h -1 v -1 h -1 v -2 h -1 v -1 h -1 v -1 h -1 v -1 h -1 v -1 h -1 v -1 h -1 v -1 h -1 v -1 h -1 v -2 h -1 v -1 h -1 v -1 h -1 v -1 h -1 v -1 h -1 v -1 h -1 v -1 h -1 v -2 h -1 v -1 h -1 v -1 h -1 v -1 h -1 v -1 h -1 v -1 h -1 v -1 h -1 v -1 h -1 v -1 h -1 v -1 h -1 v -1 h -1 v -1 h -1 v -1 h -1 v -1 h -1 v -1 h -1 v -1 h -1 v -1 h -1 v -1 h -1 v -1 h -1 v -1 h -1 v -1 h -1 v -1 h -1 v -1 h -2 v -1 h -1 v -1 h -1 v -1 h -1 v -1 h -1 v -1 h -1 v -1 h -1 v -1 h -2 v -1 h -1 v -1 h -1 v -1 h -1 v -1 h -1 v -1 h -1 v -1 h -1 v -1 h -1 v -1 h -2 v -1 h -1 v -1 h -1 v -1 h -1 v -1 h -1 v -1 h -1 v -1 h -1 v -1 h -2 v -1 h -1 v -1 h -1 v -1 h -1 v -1 h -2 v -1 h -1 v -1 h -1 v -1 h -2 v -1 h -1 v -1 h -1 v -1 h -2 v -1 h -1 v -1 h -1 v -1 h -2 v -1 h -1 v -1 h -1 v -1 h -2 v -1 h -1 v -1 h -1 v -1 h -2 v -1 h -1 v -1 h -1 v -1 h -2 v -1 h -1 v -1 h -1 v -1 h -2 v -1 h -1 v -1 h -1 v -1 h -2 v -1 h -1 v -1 h -1 v -1 h -2 v -1 h -1 v -1 h -1 v -1 h -2 v -1 h -2 v -1 h -1 v -1 h -2 v -1 h -2 v -1 h -1 v -1 h -2 v -1 h -2 v -1 h -1 v -1 h -2 v -1 h -1 v -1 h -2 v -1 h -2 v -1 h -1 v -1 h -2 v -1 h -2 v -1 h -1 v -1 h -2 v -1 h -2 v -1 h -1 v -1 h -2 v -1 h -2 v -1 h -1 v -1 h -2 v -1 h -2 v -1 h -1 v -1 h -2 v -1 h -2 v -1 h -2 v -1 h -2 v -1 h -2 v -1 h -2 v -1 h -2 v -1 h -2 v -1 h -2 v -1 h -2 v -1 h -2 v -1 h -2 v -1 h -2 v -1 h -2 v -1 h -2 v -1 h -2 v -1 h -2 v -1 h -2 v -1 h -2 v -1 h -2 v -1 h -3 v -1 h -2 v -1 h -2 v -1 h -3 v -1 h -2 v -1 h -3 v -1 h -2 v -1 h -2 v -1 h -3 v -1 h -3 v -1 h -2 v -1 h -3 v -1 h -3 v -1 h -3 v -1 h -3 v -1 h -3 v -1 h -3 v -1 h -3 v -1 h -2 v -1 h -3 v -1 h -3 v -1 h -3 v -1 h -4 v -1 h -3 v -1 h -4 v -1 h -4 v -1 h -4 v -1 h -4 v -1 h -4 v -1 h -4 v -1 h -4 v -1 h -4 v -1 h -4 v -1 h -4 v -1 h -4 v -1 h -4 v -1 h -7 v -1 h -6 v -1 h -7 V 9 h -7 V 8 h -6 V 7 h -7 V 6 h -7 V 5 h -8 V 4 H 609 V 3 H 593 V 2 Z M 1,387 v 3 H 0 v 21 h 1 v 7 h 1 v 3 h 1 v 2 h 1 v 2 h 1 v 2 h 1 v 3 h 1 v 2 h 1 v 1 h 1 v 1 h 1 v 2 h 1 v 1 h 1 v 1 h 1 v 1 h 1 v 2 h 1 v 1 h 1 v 1 h 2 v 1 h 1 v 1 h 1 v 2 h 1 v 1 h 1 v 1 h 1 v 1 h 1 v 1 h 1 v 2 h 1 v 1 h 1 v 1 h 1 v 1 h 1 v 1 h 1 v 1 h 1 v 1 h 1 v 1 h 1 v 1 h 1 v 1 h 1 v 1 h 1 v 1 h 1 v 1 h 1 v 1 h 1 v 1 h 1 v 1 h 2 v 1 h 1 v 1 h 1 v 1 h 1 v 1 h 2 v 1 h 1 v 1 h 1 v 1 h 2 v 1 h 1 v 1 h 2 v 1 h 2 v 1 h 1 v 1 h 2 v 1 h 2 v 1 h 1 v 1 h 2 v 1 h 2 v 1 h 3 v 1 h 2 v 1 h 2 v 1 h 2 v 1 h 3 v 1 h 2 v 1 h 3 v 1 h 2 v 1 h 3 v 1 h 3 v 1 h 2 v 1 h 3 v 1 h 2 v 1 h 3 v 1 h 2 v 1 h 3 v 1 h 2 v 1 h 3 v 1 h 2 v 1 h 3 v 1 h 2 v 1 h 3 v 1 h 2 v 1 h 3 v 1 h 2 v 1 h 3 v 1 h 2 v 1 h 3 v 1 h 2 v 1 h 3 v 1 h 2 v 1 h 3 v 1 h 2 v 1 h 3 v 1 h 2 v 1 h 3 v 1 h 2 v 1 h 3 v 1 h 2 v 1 h 3 v 1 h 2 v 1 h 3 v 1 h 2 v 1 h 3 v 1 h 2 v 1 h 3 v 1 h 3 v 1 h 3 v 1 h 3 v 1 h 3 v 1 h 3 v 1 h 3 v 1 h 3 v 1 h 3 v 1 h 2 v 1 h 2 v 1 h 1 v 1 h 1 v 1 h 1 v 26 h -16 v 1 h -2 v 1 h -1 v 3 h 1 v 2 h 1 v 1 h 1 v 1 h 1 v 1 h 2 v 1 h 1 v 1 h 2 v 1 h 1 v 1 h 2 v 1 h -2 v -1 h -4 v -1 h -4 v -1 h -4 v -1 h -8 v 1 h -3 v 1 h -1 v 1 h 1 v 2 h 1 v 3 h 1 v 2 h 1 v 6 h 1 v 2 h 1 v 1 h 1 v 1 h 1 v 1 h 1 v 1 h 2 v 1 h 2 v 1 h 2 v 1 h 2 v 1 h 2 v 1 h 2 v 1 h 1 v 1 h 2 v 1 h 2 v 1 h 2 v 1 h 2 v 1 h 1 v 1 h -1 v -1 h -5 v -1 h -5 v -1 h -4 v -1 h -5 v -1 h -9 v 1 h -3 v 3 h 1 v 3 h 1 v 2 h 1 v 1 h 1 v 1 h 2 v 1 h 2 v 1 h 2 v 1 h 3 v 1 h 2 v 1 h 2 v 1 h 2 v 1 h 2 v 1 h 2 v 1 h 2 v 1 h 2 v 1 h 2 v 1 h -12 v 1 h -3 v 1 h -2 v 1 h -2 v 1 h -2 v 2 h 1 v 1 h 1 v 2 h 1 v 1 h 1 v 1 h 1 v 1 h 1 v 1 h 1 v 2 h -1 v 6 h 1 v 1 h 1 v 1 h 3 v 1 h 2 v 1 h 2 v 1 h 2 v 1 h 2 v 1 h 2 v 1 h 2 v 1 h -10 v 1 h -2 v 1 h -2 v 1 h -1 v 2 h 1 v 1 h 1 v 2 h 1 v 1 h 1 v 1 h 1 v 1 h 2 v 1 h 2 v 1 h 1 v 5 h 2 v 1 h 1 v 1 h 18 v -1 h 3 v -1 h 2 v -2 h -1 v -2 h -1 v -3 h -1 v -2 h 1 v -1 h 1 v -1 h 1 v -1 h 1 v -1 h 1 v -5 h -1 v -1 h -1 v -1 h -1 v -1 h -1 v -1 h -2 v -1 h -1 v -1 h -2 v -1 h 1 v -1 h 1 v -1 h 1 v -5 h -1 v -2 h -1 v -1 h -1 v -1 h -1 v -1 h -1 v -1 h 7 v -1 h 6 v -1 h 2 v -1 h 1 v -4 h -1 v -4 h -1 v -1 h 4 v 1 h 8 v 1 h 9 v 1 h 6 v -8 h -1 v -1 h -1 v -1 h -1 v -1 h -2 v -1 h -1 v -1 h -1 v -1 h 2 v -1 h 1 v -1 h 2 v -1 h 1 v -2 h -1 v -1 h -1 v -2 h -1 v -1 h -1 v -2 h -1 v -1 h -2 v -1 h -1 v -1 h -2 v -1 h -2 v -1 h -2 v -2 h 1 v -4 h -1 v -2 h -1 v -1 h -1 v -1 h -1 v -1 h -1 v -1 h -1 v -1 h -2 v -1 h -2 v -1 h -1 v -1 h -1 v -1 h -2 v -1 h -1 v -4 h 1 v -1 h 1 v -1 h 1 v -1 h 1 v -1 h -1 v -1 h -4 v -1 h -3 v -1 h -4 v -5 h 1 v -15 h 1 v -8 h 2 v 1 h 3 v 1 h 3 v 1 h 4 v 1 h 3 v 1 h 3 v 1 h 3 v 1 h 4 v 1 h 3 v 1 h 3 v 1 h 4 v 1 h 3 v 1 h 3 v 1 h 3 v 1 h 4 v 1 h 3 v 1 h 3 v 1 h 2 v 1 h 1 v 1 h 1 v 1 h 1 v 24 h -1 v 29 h -1 v 8 h -3 v 1 h -2 v 1 h -3 v 1 h -3 v 1 h -3 v 1 h -3 v 4 h 1 v 18 h -7 v -1 h -10 v 1 h -2 v 1 h -2 v 2 h 1 v 2 h 1 v 1 h 1 v 2 h 1 v 1 h 1 v 2 h 1 v 1 h 1 v 1 h 1 v 1 h 1 v 1 h 1 v 1 h 1 v 1 h 2 v 1 h 4 v 1 h 4 v 1 h 4 v 1 h 4 v 1 h 4 v 1 h 1 v 1 h 2 v 1 h 1 v 1 h 1 v 1 h -29 v 1 h -3 v 1 h -2 v 1 h -1 v 2 h 1 v 1 h 1 v 1 h 1 v 1 h 1 v 1 h 1 v 1 h 1 v 1 h 3 v 2 h -2 v 2 h -1 v 3 h 1 v 2 h 1 v 1 h 1 v 1 h 2 v 1 h 2 v 1 h 3 v 1 h 2 v 1 h 3 v 1 h 3 v 1 h 1 v 1 h -1 v 1 h -1 v 1 h -1 v 1 h -1 v 1 h -1 v 2 h 1 v 1 h 1 v 1 h 2 v 1 h 1 v 1 h 1 v 1 h 2 v 1 h 1 v 1 h 1 v 1 h 1 v 4 h 1 v 4 h -1 v 1 h -1 v 1 h -2 v 1 h -1 v 2 h -1 v 4 h 1 v 2 h 1 v 1 h 1 v 2 h 1 v 1 h 1 v 1 h -1 v 4 h 1 v 1 h 2 v 1 h 1 v 1 h 1 v 1 h 1 v 1 h 1 v 1 h 1 v 1 h 2 v 1 h 1 v 1 h 4 v 1 h 6 v -2 h -1 v -4 h -1 v -3 h 8 v -1 h 3 v -1 h 1 v -1 h -1 v -1 h -1 v -2 h -1 v -1 h -1 v -1 h -1 v -1 h -2 v -1 h 7 v -1 h 1 v -2 h 1 v -3 h -1 v -2 h -2 v -1 h -2 v -1 h 1 v -1 h 2 v -1 h 2 v -1 h 3 v -1 h 1 v -1 h -1 v -1 h -1 v -1 h -1 v -1 h -1 v -1 h -1 v -2 h 12 v -5 h -1 v -2 h -1 v -1 h -2 v -1 h -2 v -1 h -2 v -1 h -3 v -1 h -2 v -1 h -3 v -1 h -2 v -1 h 9 v 1 h 12 v -7 h -1 v -1 h -2 v -1 h -3 v -1 h -4 v -1 h -6 v -1 h -5 v -1 h 8 v -1 h 28 v -1 h 2 v -1 h 2 v -1 h 1 v -1 h -1 v -1 h -1 v -2 h -1 v -1 h -1 v -1 h -1 v -1 h -3 v -1 h -3 v -1 h -3 v -1 h -3 v -1 h -3 v -1 h -3 v -1 h -3 v -1 h 7 v -1 h 1 v -7 h 12 v -2 h -1 v -4 h -1 v -2 h -1 v -1 h -2 v -1 h -2 v -1 h -6 v -1 h -1 v -1 h -1 v -2 h -1 v -1 h -1 v -2 h -1 v -2 h 10 v -7 h -2 v -1 h -6 v -1 h -6 v -1 h -6 v -1 h -6 v -1 h -7 v -1 h -2 v -1 h -1 v -1 h -1 v -12 h 1 v -11 h 1 v -11 h 1 v -11 h 1 v -10 h 1 v -7 h 1 v -3 h 4 v 1 h 4 v 1 h 4 v 1 h 5 v 1 h 4 v 1 h 4 v 1 h 4 v 1 h 4 v 1 h 5 v 1 h 4 v 1 h 4 v 1 h 5 v 1 h 4 v 1 h 4 v 1 h 5 v 1 h 5 v 1 h 5 v 1 h 6 v 1 h 5 v 1 h 6 v 1 h 5 v 1 h 5 v 1 h 6 v 1 h 5 v 1 h 6 v 1 h 5 v 1 h 6 v 1 h 5 v 1 h 6 v 1 h 5 v 1 h 8 v 1 h 8 v 1 h 7 v 1 h 7 v 1 h 4 v 1 h 3 v 1 h 2 v 1 h 2 v 1 h 2 v 1 h 1 v 1 h 2 v 1 h 2 v 1 h 1 v 2 h -3 v 1 h -8 v 1 h -5 v 1 h -1 v 7 h 1 v 1 h 1 v 1 h 1 v 1 h 2 v 1 h 1 v 1 h 1 v 1 h -2 v -1 h -6 v -1 h -7 v -1 h -6 v -1 h -5 v -1 h -6 v -1 h -5 v 1 h -2 v 1 h -1 v 4 h 1 v 2 h 1 v 1 h 3 v 1 h 3 v 1 h 4 v 1 h 4 v 1 h 3 v 1 h 3 v 2 h 1 v 1 h 1 v 1 h 1 v 2 h 1 v 1 h 1 v 1 h 1 v 1 h 2 v 1 h 3 v 1 h 2 v 1 h 3 v 1 h 2 v 1 h 3 v 1 h 3 v 1 h 3 v 1 h 2 v 1 h 1 v 1 h -2 v -1 h -7 v -1 h -7 v -1 h -7 v -1 h -6 v -1 h -7 v -1 h -6 v 1 h -2 v 1 h -2 v 3 h 1 v 1 h 1 v 1 h 1 v 2 h 1 v 1 h 1 v 1 h 3 v 1 h 3 v 1 h 2 v 1 h 2 v 1 h 1 v 1 h 1 v 1 h 1 v 1 h 1 v 1 h 1 v 1 h 1 v 1 h 1 v 1 h 2 v 1 h 1 v 1 h 2 v 1 h 3 v 1 h 2 v 1 h 2 v 1 h -3 v -1 h -8 v 8 h 1 v 3 h 1 v 2 h 1 v 1 h 1 v 1 h 1 v 1 h 1 v 1 h 2 v 1 h -4 v 6 h 1 v 2 h 1 v 1 h 2 v 1 h 1 v 1 h 2 v 1 h 2 v 1 h 2 v 1 h 1 v 1 h -10 v 2 h 1 v 4 h 1 v 1 h 1 v 1 h 2 v 1 h 1 v 1 h 2 v 1 h 1 v 1 h 1 v 1 h 2 v 1 h 1 v 1 h 1 v 1 h 1 v 1 h 1 v 1 h 2 v 1 h 1 v 1 h 2 v 1 h 4 v 1 h 15 v -1 h 3 v -7 h 1 v -5 h -1 v -2 h -1 v -1 h -1 v -1 h -1 v -1 h -2 v -1 h -1 v -1 h -2 v -1 h -1 v -1 h -1 v -1 h 2 v 1 h 12 v 1 h 7 v -5 h -1 v -2 h -1 v -1 h -1 v -1 h -2 v -1 h -2 v -1 h -2 v -1 h -2 v -1 h 1 v -1 h 1 v -1 h 1 v -1 h 1 v -1 h 1 v -1 h 1 v -1 h 1 v -4 h -1 v -2 h -1 v -1 h -2 v -1 h -2 v -1 h -2 v -1 h -3 v -1 h -1 v -1 h 3 v 1 h 6 v 1 h 6 v 1 h 2 v -3 h 1 v -3 h -1 v -2 h -1 v -1 h -2 v -1 h -4 v -1 h -3 v -1 h -3 v -1 h 6 v 1 h 8 v 1 h 9 v 1 h 8 v 1 h 4 v -1 h 1 v -7 h -1 v -1 h -1 v -1 h -2 v -1 h -3 v -1 h -2 v -1 h -3 v -1 h -2 v -1 h -2 v -1 h -2 v -1 h -3 v -1 h -2 v -1 h 7 v -1 h 1 v -1 h 1 v -4 h 1 v -1 h 1 v -1 h 2 v -1 h 1 v -5 h -1 v -1 h -2 v -1 h -2 v -1 h -3 v -1 h -3 v -1 h -3 v -1 h -4 v -1 h -3 v -1 h -2 v -1 h -2 v -1 h -1 v -1 h -1 v -2 h -1 v -1 h -2 v -1 h -2 v -1 h 9 v -7 h -1 v -1 h -1 v -1 h -2 v -1 h -2 v -1 h -2 v -1 h -2 v -1 h -1 v -1 h -1 v -1 h -1 v -1 h 2 v -1 h 2 v -1 h 2 v 1 h 18 v 1 h 16 v 1 h 16 v 1 h 11 v 2 h 1 v 21 h 1 v 27 h 1 v 9 h -1 v 7 h -1 v 3 h -1 v 2 h -1 v 3 h -1 v 2 h -2 v 1 h -4 v 1 h -7 v 1 h -1 v 6 h -7 v -1 h -7 v 1 h -2 v 1 h -2 v 1 h -2 v 2 h 1 v 2 h 1 v 1 h 1 v 1 h 1 v 1 h 2 v 1 h 2 v 1 h 2 v 1 h 2 v 1 h 3 v 1 h 2 v 1 h 2 v 1 h 2 v 1 h 3 v 1 h 2 v 1 h -11 v 1 h -3 v 2 h 1 v 2 h 1 v 2 h 1 v 2 h 1 v 1 h 2 v 10 h -1 v 1 h -1 v 1 h -2 v 4 h 1 v 2 h 1 v 1 h 2 v 1 h 1 v 1 h 2 v 1 h 2 v 1 h 1 v 1 h 2 v 1 h 2 v 1 h 2 v 1 h 2 v 2 h -11 v 8 h 1 v 1 h 1 v 1 h 1 v 1 h 2 v 1 h 2 v 1 h 1 v 1 h 1 v 1 h 1 v 4 h 1 v 10 h 1 v 2 h 1 v 2 h 1 v 1 h 1 v 1 h 2 v 1 h 1 v 1 h 2 v 1 h 2 v 1 h 7 v -1 h 1 v -5 h 5 v 1 h 6 v -2 h -1 v -3 h -1 v -2 h -1 v -2 h -2 v -1 h -1 v -1 h -1 v -1 h -1 v -1 h -1 v -1 h -1 v -2 h -1 v -4 h 1 v -3 h 1 v -1 h 8 v -3 h 1 v -1 h -1 v -2 h -1 v -1 h -1 v -1 h -1 v -1 h -1 v -1 h -1 v -1 h -1 v -1 h -2 v -1 h 1 v -1 h 2 v -1 h 1 v -1 h 1 v -4 h -1 v -1 h -1 v -1 h -1 v -1 h -1 v -1 h 6 v -1 h 3 v -4 h -1 v -1 h -1 v -1 h -1 v -1 h -1 v -1 h -1 v -1 h -2 v -1 h -1 v -1 h 10 v -1 h 3 v -1 h 2 v -1 h -1 v -2 h -1 v -2 h -1 v -1 h -1 v -1 h -2 v -1 h -2 v -1 h -2 v -1 h -2 v -1 h -3 v -1 h -2 v -1 h -1 v -1 h -1 v -1 h 6 v 1 h 7 v 1 h 6 v 1 h 6 v 1 h 5 v 1 h 3 v 1 h 2 v 1 h 2 v 1 h 1 v 1 h 1 v 1 h 1 v 2 h 1 v 2 h 1 v 3 h 1 v 2 h 1 v 1 h 1 v 1 h 2 v 1 h 3 v 1 h 4 v 1 h 9 v -1 h 2 v -3 h -1 v -3 h -1 v -4 h 5 v -1 h 2 v -1 h -1 v -2 h -1 v -1 h -1 v -2 h -1 v -1 h -1 v -1 h -1 v -3 h 1 v -1 h 2 v -1 h 1 v -1 h 2 v -1 h 1 v -1 h 2 v -7 h -1 v -1 h -1 v -1 h -1 v -1 h -3 v -1 h -4 v -1 h -2 v -1 h -2 v -1 h -1 v -1 h -1 v -1 h 3 v 1 h 5 v 1 h 6 v 1 h 5 v -1 h 2 v -1 h 2 v -3 h -1 v -1 h -1 v -2 h -1 v -1 h -2 v -1 h -2 v -1 h -3 v -1 h -3 v -1 h -2 v -1 h -3 v -1 h -3 v -1 h -2 v -1 h 3 v 1 h 6 v 1 h 4 v 1 h 5 v 1 h 3 v -1 h 2 v -1 h 1 v -1 h 1 v -1 h -1 v -2 h -1 v -2 h -2 v -1 h -3 v -1 h -3 v -1 h -3 v -1 h -3 v -1 h -4 v -1 h -3 v -1 h -2 v -1 h 4 v 1 h 17 v -1 h 2 v -1 h 1 v -1 h 1 v -1 h 1 v -2 h 1 v -4 h -1 v -1 h -1 v -1 h -2 v -1 h -2 v -1 h 1 v -1 h 1 v -2 h 1 v -2 h -1 v -2 h -2 v -1 h -2 v -1 h -3 v -1 h -3 v -1 h -3 v -1 h -3 v -1 h -3 v -1 h -3 v -1 h 3 v -1 h 2 v -1 h 3 v -1 h 1 v -1 h -1 v -2 h -1 v -2 h -1 v -1 h -1 v -1 h -1 v -1 h -2 v -1 h -2 v -2 h -1 v -2 h -1 v -3 h 1 v -4 h 1 v -3 h 1 v -4 h 1 v -1 h 6 v -1 h 6 v -1 h 6 v -1 h 6 v -1 h 6 v -1 h 6 v -1 h 5 v -1 h 5 v -1 h 5 v -1 h 5 v -1 h 4 v -1 h 4 v -1 h 4 v -1 h 4 v -1 h 4 v -1 h 3 v -1 h 3 v -1 h 3 v -1 h 3 v -1 h 3 v -1 h 2 v -1 h 3 v -1 h 2 v -1 h 2 v -1 h 2 v -1 h 3 v -1 h 2 v -1 h 2 v -1 h 2 v -1 h 2 v -1 h 1 v -1 h 2 v -1 h 2 v -1 h 2 v -1 h 1 v -1 h 2 v -1 h 2 v -1 h 1 v -1 h 2 v -1 h 1 v -1 h 1 v -1 h 2 v -1 h 1 v -1 h 1 v -1 h 2 v -1 h 1 v -1 h 1 v -1 h 2 v -1 h 1 v -4 h -1 v -1 h -2 v 1 h -2 v 1 h -3 v 1 h -2 v 1 h -3 v 1 h -2 v 1 h -2 v 1 h -2 v 1 h -2 v 1 h -2 v 1 h -2 v 1 h -2 v 1 h -2 v 1 h -3 v 1 h -2 v 1 h -2 v 1 h -3 v 1 h -3 v 1 h -2 v 1 h -3 v 1 h -3 v 1 h -3 v 1 h -4 v 1 h -4 v 1 h -3 v 1 h -4 v 1 h -5 v 1 h -5 v 1 h -6 v 1 h -6 v 1 h -9 v 1 h -8 v 1 h -9 v 1 h -8 v 1 h -9 v 1 h -12 v 1 h -13 v 1 h -14 v 1 h -18 v 1 h -41 v -1 h -14 v -1 h -11 v -1 h -10 v -1 h -9 v -1 h -10 v -1 h -2 v -1 h -1 v -1 h -1 v -2 h -1 v -4 h -1 v -4 h 1 v -7 h 1 v -7 h -1 v -2 h -1 v -1 h -1 v -1 h -1 v -1 h -2 v 1 h -1 v 2 h -1 v 1 h -1 v 1 h -1 v 15 h -1 v 9 h -3 v -1 h -6 v -1 h -5 v -1 h -5 v -1 h -5 v -1 h -5 v -1 h -5 v -1 h -5 v -1 h -5 v -1 h -4 v -1 h -4 v -1 h -4 v -1 h -4 v -1 h -4 v -1 h -4 v -1 h -4 v -1 h -4 v -1 h -4 v -1 h -4 v -1 h -4 v -1 h -4 v -1 h -4 v -1 h -4 v -1 h -4 v -1 h -3 v -1 h -4 v -1 h -3 v -1 h -3 v -1 h -3 v -1 h -3 v -1 h -3 v -1 h -3 v -1 h -4 v -1 h -3 v -1 h -3 v -1 h -3 v -1 h -3 v -1 h -3 v -1 h -4 v -1 h -3 v -1 h -3 v -1 h -3 v -1 h -3 v -1 h -3 v -1 h -3 v -1 h -2 v -1 h -3 v -1 h -3 v -1 h -3 v -1 h -2 v -1 h -3 v -1 h -3 v -1 h -2 v -1 h -3 v -1 h -2 v -1 h -3 v -1 h -3 v -1 h -2 v -1 h -3 v -1 h -3 v -1 h -2 v -1 h -3 v -1 h -3 v -1 h -2 v -1 h -3 v -1 h -2 v -1 h -3 v -1 h -3 v -1 h -2 v -1 h -3 v -1 h -2 v -1 h -3 v -1 h -2 v -1 h -3 v -1 h -2 v -1 h -3 v -1 h -2 v -1 h -3 v -1 h -2 v -1 h -2 v -1 h -3 v -1 h -2 v -1 h -3 v -1 h -2 v -1 h -3 v -1 h -2 v -1 h -3 v -1 h -2 v -1 h -3 v -1 h -2 v -1 h -2 v -1 h -2 v -1 h -3 v -1 h -2 v -1 h -2 v -1 h -2 v -1 h -3 v -1 h -2 v -1 h -2 v -1 h -2 v -1 h -2 v -1 h -3 v -1 h -2 v -1 h -2 v -1 h -2 v -1 h -2 v -1 h -2 v -1 h -2 v -1 h -3 v -1 h -2 v -1 h -2 v -1 h -2 v -1 h -2 v -1 h -2 v -1 h -3 v -1 h -2 v -1 h -2 v -1 h -2 v -1 h -2 v -1 h -2 v -1 h -2 v -1 h -2 v -1 h -2 v -1 h -2 v -1 h -2 v -1 h -2 v -1 h -2 v -1 h -2 v -1 h -2 v -1 h -2 v -1 h -2 v -1 h -2 v -1 h -2 v -1 h -2 v -1 h -2 v -1 h -2 v -1 h -2 v -1 h -2 v -1 h -2 v -1 h -2 v -1 h -2 v -1 h -2 v -1 h -2 v -1 h -3 v -1 h -1 v -1 h -2 v -1 h -2 v -1 h -2 v -1 h -2 v -1 h -2 v -1 h -2 v -1 h -2 v -1 h -2 v -1 h -1 v -1 h -2 v -1 h -2 v -1 h -1 v -1 h -2 v -1 h -2 v -1 h -2 v -1 h -1 v -1 h -2 v -1 h -2 v -1 h -1 v -1 h -2 v -1 h -2 v -1 h -2 v -1 h -1 v -1 h -2 v -1 h -2 v -1 h -1 v -1 h -2 v -1 h -2 v -1 h -1 v -1 h -2 v -1 h -1 v -1 h -2 v -1 h -2 v -1 h -1 v -1 h -2 v -1 h -2 v -1 h -1 v -1 h -2 v -1 h -1 v -1 h -2 v -1 h -2 v -1 h -1 v -1 h -2 v -1 h -2 v -1 h -1 v -1 h -2 v -1 h -2 v -1 h -2 v -1 h -2 v -1 h -2 v -1 H 7 v -1 H 4 v -1 z m 490,38 v 1 h -2 v 1 h -1 v 1 h -1 v 2 h -1 v 3 h -1 v 11 h 1 v 3 h 1 v 4 h 1 v 3 h 1 v 2 h 1 v 1 h 1 v 2 h 1 v 1 h 1 v 2 h 1 v 1 h 1 v 1 h 1 v 1 h 1 v 1 h 1 v 1 h 1 v 1 h 2 v 1 h 1 v 1 h 2 v 1 h 2 v 1 h 2 v 1 h 2 v 1 h 1 v 1 h 2 v 1 h 2 v 1 h 2 v 1 h 2 v 1 h 2 v 1 h 2 v 1 h 2 v 1 h 2 v 1 h 2 v 1 h 2 v 1 h 2 v 1 h 3 v 1 h 2 v 1 h 2 v 1 h 2 v 1 h 2 v 1 h 2 v 1 h 3 v 1 h 2 v 1 h 2 v 1 h 3 v 1 h 2 v 1 h 3 v 1 h 3 v 1 h 2 v 1 h 3 v 1 h 2 v 1 h 3 v 1 h 3 v 1 h 3 v 1 h 3 v 1 h 3 v 1 h 3 v 1 h 3 v 1 h 3 v 1 h 3 v 1 h 4 v 1 h 4 v 1 h 3 v 1 h 4 v 1 h 4 v 1 h 5 v 1 h 4 v 1 h 4 v 1 h 4 v 1 h 4 v 1 h 4 v 1 h 4 v 1 h 5 v 1 h 4 v 1 h 5 v 1 h 5 v 1 h 4 v 1 h 5 v 1 h 5 v 1 h 5 v 1 h 4 v 1 h 5 v 1 h 5 v 1 h 5 v 1 h 6 v 1 h 6 v 1 h 7 v 1 h 7 v 1 h 7 v 1 h 8 v 1 h 9 v 1 h 9 v 1 h 10 v 1 h 9 v 1 h 14 v 1 h 13 v 1 h 13 v 1 h 15 v 1 h 27 v 1 h 29 v 1 h 31 v 1 h 4 v 1 h 1 v 1 h 1 v 5 h -1 v 8 h -1 v 12 h -1 v 3 h -1 v 4 h -1 v 3 h -3 v 1 h -4 v -1 h -8 v 1 h -3 v 1 h -1 v 1 h -1 v 1 h -1 v 1 h -1 v 1 h -6 v -1 h -4 v 1 h -4 v 1 h -3 v 3 h 1 v 3 h 1 v 1 h -4 v 1 h -2 v 1 h -1 v 5 h 1 v 1 h 1 v 1 h 1 v 1 h 2 v 1 h 3 v 1 h 2 v 1 h 3 v 1 h 2 v 1 h 3 v 1 h 2 v 1 h 3 v 1 h 3 v 1 h 2 v 1 h 3 v 1 h -1 v 1 h -2 v 1 h -1 v 1 h -1 v 4 h 1 v 1 h 1 v 1 h 2 v 1 h 1 v 1 h 2 v 1 h 2 v 1 h 1 v 1 h 2 v 1 h 2 v 1 h 2 v 1 h -3 v 1 h -1 v 1 h -1 v 2 h -1 v 3 h 1 v 2 h -12 v 3 h 1 v 2 h 1 v 2 h 1 v 4 h -1 v 1 h -1 v 1 h -1 v 1 h -1 v 1 h 1 v 1 h 1 v 1 h 1 v 1 h 1 v 1 h 2 v 1 h 2 v 1 h 2 v 1 h 2 v 1 h 2 v 1 h 2 v 1 h 1 v 1 h 2 v 1 h 1 v 1 h 1 v 2 h 1 v 2 h 1 v 2 h 2 v -1 h 1 v -1 h 1 v -1 h 2 v -1 h 1 v -1 h 1 v -1 h 1 v -1 h 1 v -1 h 10 v -6 h -1 v -1 h -1 v -1 h -2 v -1 h -1 v -1 h -2 v -1 h -1 v -1 h 7 v 1 h 2 v 1 h 5 v -1 h 1 v -2 h 1 v -4 h 3 v -1 h 4 v -1 h 2 v -1 h -1 v -1 h -1 v -2 h -1 v -1 h -1 v -1 h -1 v -1 h -1 v -1 h -1 v -1 h -1 v -1 h -2 v -1 h -2 v -1 h -1 v -1 h -2 v -1 h -2 v -1 h -2 v -1 h -1 v -1 h 2 v 1 h 5 v 1 h 6 v 1 h 6 v 1 h 6 v 1 h 5 v 1 h 4 v -3 h 1 v -3 h -1 v -2 h -1 v -1 h -1 v -1 h -3 v -1 h -2 v -1 h -3 v -1 h -3 v -1 h -3 v -1 h -2 v -1 h -3 v -1 h -2 v -1 h -3 v -1 h -2 v -1 h -3 v -1 h 6 v 1 h 8 v 1 h 7 v 1 h 7 v -1 h 1 v -1 h 1 v -5 h 5 v -1 h 2 v -3 h -1 v -1 h -1 v -1 h -1 v -1 h -1 v -1 h -2 v -1 h -2 v -1 h -3 v -1 h -3 v -1 h -3 v -1 h -3 v -1 h -3 v -1 h -3 v -1 h 7 v -1 h 6 v -3 h -1 v -2 h -1 v -2 h -1 v -1 h -3 v -1 h -3 v -1 h -3 v -1 h -3 v -1 h -3 v -1 h -3 v -1 h -3 v -1 h -3 v -1 h -3 v -1 h -3 v -36 h 12 v -1 h 14 v -1 h 14 v -1 h 14 v -1 h 14 v -1 h 14 v -1 h 13 v -1 h 1 v 1 h -1 v 1 h -1 v 1 h -1 v 1 h -2 v 1 h -1 v 2 h -1 v 3 h -1 v 4 h 1 v 6 h 1 v 7 h 1 v 5 h -18 v 1 h -3 v 1 h -1 v 1 h -1 v 3 h 1 v 2 h 1 v 2 h 1 v 1 h -1 v 13 h -4 v -1 h -7 v -1 h -6 v -1 h -3 v 1 h -1 v 4 h 1 v 1 h 1 v 1 h 1 v 2 h 1 v 1 h 1 v 2 h 1 v 1 h 1 v 2 h 1 v 1 h 1 v 1 h 1 v 1 h 1 v 1 h 2 v 1 h 1 v 1 h 4 v 1 h 4 v 1 h 3 v 1 h 3 v 1 h 3 v 1 h 2 v 1 h 3 v 1 h 3 v 1 h 2 v 1 h 2 v 1 h 1 v 1 h -1 v 1 h -7 v -1 h -7 v -1 h -6 v -1 h -7 v -1 h -7 v -1 h -5 v 7 h 1 v 1 h 1 v 1 h 1 v 1 h 1 v 1 h 2 v 1 h 2 v 1 h -1 v 1 h -1 v 1 h -1 v 5 h 1 v 1 h 1 v 1 h 2 v 1 h 2 v 1 h 1 v 1 h 2 v 1 h 2 v 1 h 2 v 1 h 2 v 1 h 2 v 1 h 2 v 1 h -2 v 1 h -1 v 1 h -1 v 1 h -1 v 3 h 1 v 2 h 1 v 1 h 1 v 1 h 1 v 1 h 3 v 1 h 1 v 1 h 1 v 1 h 1 v 2 h 1 v 4 h 1 v 4 h -1 v 1 h -2 v 1 h -1 v 1 h -2 v 3 h 1 v 1 h 1 v 2 h 1 v 1 h 1 v 2 h 1 v 2 h -1 v 4 h 1 v 1 h 1 v 1 h 1 v 1 h 2 v 1 h 1 v 1 h 2 v 1 h 1 v 1 h 1 v 1 h 1 v 1 h 1 v 1 h 1 v 1 h 9 v -1 h -1 v -2 h -1 v -1 h -1 v -2 h -1 v -2 h 2 v 1 h 6 v -1 h 3 v -1 h 2 v -2 h -1 v -1 h -1 v -2 h -1 v -1 h -1 v -1 h -1 v -1 h 2 v -1 h 5 v -1 h 3 v -1 h -1 v -1 h -1 v -1 h -1 v -1 h -1 v -1 h -1 v -1 h -2 v -1 h -1 v -1 h -1 v -1 h 11 v -1 h -1 v -4 h -1 v -3 h -1 v -1 h 9 v -4 h -1 v -1 h -1 v -1 h -1 v -1 h -1 v -1 h -2 v -1 h -1 v -1 h -2 v -1 h -2 v -1 h -1 v -1 h -2 v -1 h -1 v -1 h 5 v 1 h 6 v 1 h 4 v -1 h 5 v -2 h -1 v -2 h -1 v -1 h -1 v -1 h -1 v -1 h -1 v -1 h -3 v -1 h -3 v -1 h -3 v -1 h -3 v -1 h -3 v -1 h -3 v -1 h -3 v -1 h -3 v -1 h -3 v -1 h 3 v 1 h 6 v 1 h 6 v 1 h 6 v 1 h 7 v 1 h 7 v 1 h 7 v 1 h 5 v -1 h 2 v -1 h 1 v -1 h 2 v -1 h -1 v -2 h -1 v -2 h -1 v -1 h -1 v -1 h -1 v -1 h -3 v -1 h -2 v -1 h -3 v -1 h -2 v -1 h -2 v -1 h -3 v -1 h -2 v -1 h -3 v -1 h -2 v -1 h -2 v -1 h 2 v 1 h 7 v -1 h 1 v -6 h 12 v -6 h -1 v -1 h -2 v -1 h -3 v -1 h -2 v -1 h -2 v -1 h -3 v -1 h -2 v -1 h -1 v -4 h -1 v -2 h 4 v -1 h 4 v -1 h 2 v -2 h -1 v -1 h -1 v -2 h -1 v -1 h -1 v -1 h -3 v -1 h -4 v -1 h -4 v -1 h -3 v -1 h -4 v -1 h -4 v -1 h -4 v -1 h -2 v -43 h 3 v -1 h 6 v -1 h 6 v -1 h 6 v -1 h 5 v -1 h 6 v -1 h 5 v -1 h 6 v -1 h 5 v -1 h 6 v -1 h 5 v -1 h 5 v -1 h 4 v -1 h 4 v -1 h 4 v -1 h 4 v -1 h 4 v -1 h 4 v -1 h 4 v -1 h 4 v -1 h 4 v -1 h 5 v -1 h 4 v -1 h 3 v -1 h 3 v -1 h 4 v -1 h 1 v -8 h -6 v 1 h -5 v 1 h -4 v 1 h -5 v 1 h -5 v 1 h -4 v 1 h -5 v 1 h -5 v 1 h -4 v 1 h -6 v 1 h -5 v 1 h -6 v 1 h -5 v 1 h -6 v 1 h -5 v 1 h -7 v 1 h -6 v 1 h -7 v 1 h -7 v 1 h -9 v 1 h -11 v 1 h -12 v 1 h -12 v 1 h -12 v 1 h -15 v 1 h -14 v 1 h -14 v 1 h -18 v 1 h -40 v -1 h -13 v -1 h -13 v -1 h -14 v -1 h -13 v -1 h -13 v -1 h -11 v -1 h -10 v -1 h -8 v -1 h -8 v -1 h -8 v -1 h -8 v -1 h -5 v -1 h -6 v -1 h -6 v -1 h -6 v -1 h -5 v -1 h -6 v -1 h -6 v -1 h -6 v -1 h -4 v -1 h -4 v -1 h -4 v -1 h -5 v -1 h -4 v -1 h -4 v -1 h -4 v -1 h -5 v -1 h -4 v -1 h -4 v -1 h -4 v -1 h -4 v -1 h -3 v -1 h -4 v -1 h -3 v -1 h -4 v -1 h -3 v -1 h -4 v -1 h -3 v -1 h -4 v -1 h -3 v -1 h -3 v -1 h -3 v -1 h -3 v -1 h -3 v -1 h -3 v -1 h -3 v -1 h -3 v -1 h -3 v -1 h -2 v -1 h -3 v -1 h -3 v -1 h -2 v -1 h -3 v -1 h -3 v -1 h -3 v -1 h -2 v -1 h -3 v -1 h -3 v -1 h -2 v -1 h -3 v -1 h -3 v -1 h -2 v -1 h -2 v -1 h -3 v -1 h -2 v -1 h -3 v -1 h -2 v -1 h -3 v -1 h -2 v -1 h -3 v -1 h -2 v -1 h -2 v -1 h -3 v -1 h -2 v -1 h -3 v -1 h -2 v -1 h -2 v -1 h -3 v -1 h -2 v -1 h -2 v -1 h -2 v -1 h -2 v -1 h -2 v -1 h -2 v -1 h -2 v -1 h -2 v -1 h -1 v -1 h -2 v -1 h -2 v -1 h -2 v -1 h -2 v -1 h -2 v -1 h -2 v -1 h -2 v -1 h -2 v -1 h -1 v -1 h -2 v -1 h -2 v -1 h -2 v -1 h -2 v -1 h -1 v -1 h -2 v -1 h -2 v -1 h -2 v -1 h -2 v -1 h -1 v -1 h -2 v -1 h -2 v -1 h -2 v -1 h -2 v -1 h -2 v -1 z M 29,502 v 8 h -1 v 22 h -1 v 28 h 1 v 23 h 1 v 11 h 1 v 10 h 1 v 9 h 1 v 10 h 1 v 5 h 1 v 6 h 1 v 6 h 1 v 6 h 1 v 6 h 1 v 5 h 1 v 5 h 1 v 4 h 1 v 4 h 1 v 5 h 1 v 4 h 1 v 4 h 1 v 4 h 1 v 4 h 1 v 3 h 3 v -1 h 3 v -1 h 2 v -1 h 3 v -1 h 2 v -1 h 3 v -1 h 2 v -1 h 3 v -1 h 1 v -5 h -1 v -3 h -1 v -4 h -1 v -5 h -1 v -4 h -1 v -4 h -1 v -5 h -1 v -4 h -1 v -6 h -1 v -6 h -1 v -6 h -1 v -5 h -1 v -6 h -1 v -6 h -1 v -10 h -1 v -10 h -1 v -10 h -1 v -16 h -1 v -52 h 1 v -4 h -2 v -1 h -1 v -1 h -2 v -1 h -2 v -1 h -1 v -1 h -2 v -1 h -2 v -1 h -1 v -1 h -2 v -1 h -2 v -1 h -1 v -1 h -2 v -1 h -1 v -1 z m 590,108 v -1 h 18 v 4 h -1 v 12 h -1 v 2 h -2 v 1 h -4 v 1 h -4 v 1 h -4 v 1 h -4 v 1 h -5 v 1 h -4 v 1 h -1 v 3 h -1 v 2 h 1 v 2 h 1 v 1 h 1 v 1 h 2 v 1 h 2 v 1 h 2 v 1 h 1 v 1 h -1 v 1 h -6 v 1 h -5 v 2 h 1 v 2 h 1 v 2 h 1 v 3 h 1 v 2 h 1 v 3 h 1 v 2 h 1 v 2 h 1 v 1 h 1 v 2 h 1 v 1 h 1 v 2 h 1 v 1 h 2 v 1 h 1 v 1 h 1 v 1 h -4 v 3 h -1 v 2 h 1 v 4 h 1 v 1 h 1 v 1 h 1 v 1 h 1 v 1 h 2 v 1 h 2 v 1 h 2 v 1 h 1 v 1 h 2 v 2 h 1 v 1 h 1 v 4 h 1 v 6 h -2 v -1 h -3 v -1 h -3 v -1 h -4 v -1 h -3 v -1 h -2 v -5 h -1 v -2 h -6 v -1 h -5 v -1 h -6 v -1 h -4 v -6 h 1 v -11 h 1 v -31 h -1 v -12 h -1 v -7 h -1 v -7 h -1 v -5 h -1 v -2 h 7 v -1 z m -104,14 h 2 v 1 h -2 z m 430,0 h 1 v 1 h -1 z m 102,32 h 1 v 1 h -1 z M 59,726 v 1 h -4 v 1 h -2 v 1 h -3 v 1 h -2 v 1 h -2 v 1 h -2 v 1 h -2 v 1 h -2 v 1 h -2 v 1 h -2 v 1 h -2 v 1 h -2 v 1 h -2 v 1 h -1 v 1 h -2 v 1 h -2 v 1 h -2 v 1 h -2 v 1 h -2 v 1 h -2 v 1 h -2 v 2 h 1 v 2 h 1 v 1 h 1 v 1 h 1 v 1 h 1 v 1 h 2 v 1 h 1 v 1 h 2 v 1 h 1 v 1 h 2 v 1 h 2 v 1 h 1 v 1 h 2 v 1 h 1 v 1 h 2 v 1 h 1 v 1 h 2 v 1 h 1 v 1 h 2 v 1 h 1 v 1 h 2 v 1 h 1 v 1 h 2 v 1 h 1 v 1 h 2 v 1 h 1 v 1 h 2 v 1 h 1 v 1 h 2 v 1 h 1 v 1 h 2 v 1 h 1 v 1 h 2 v 1 h 1 v 1 h 2 v 1 h 2 v 1 h 1 v 1 h 2 v 1 h 1 v 1 h 2 v 1 h 1 v 1 h 2 v 1 h 1 v 1 h 2 v 1 h 2 v 1 h 1 v 1 h 2 v 1 h 1 v 1 h 2 v 1 h 1 v 1 h 2 v 1 h 2 v 1 h 1 v 1 h 2 v 1 h 2 v 1 h 1 v 1 h 2 v 1 h 2 v 1 h 1 v 1 h 2 v 1 h 1 v 1 h 2 v 1 h 2 v 1 h 2 v 1 h 1 v 1 h 2 v 1 h 2 v 1 h 1 v 1 h 2 v 1 h 2 v 1 h 2 v 1 h 1 v 1 h 2 v 1 h 2 v 1 h 2 v 1 h 1 v 1 h 2 v 1 h 2 v 1 h 1 v 1 h 2 v 1 h 2 v 1 h 2 v 1 h 1 v 1 h 2 v 1 h 2 v 1 h 2 v 1 h 2 v 1 h 1 v 1 h 2 v 1 h 2 v 1 h 2 v 1 h 2 v 1 h 1 v 1 h 2 v 1 h 2 v 1 h 2 v 1 h 2 v 1 h 2 v 1 h 1 v 1 h 2 v 1 h 2 v 1 h 2 v 1 h 2 v 1 h 1 v 1 h 2 v 1 h 2 v 1 h 2 v 1 h 2 v 1 h 2 v 1 h 1 v 1 h 2 v 1 h 2 v 1 h 2 v 1 h 2 v 1 h 2 v 1 h 2 v 1 h 2 v 1 h 2 v 1 h 2 v 1 h 2 v 1 h 2 v 1 h 2 v 1 h 1 v 1 h 2 v 1 h 2 v 1 h 2 v 1 h 2 v 1 h 2 v 1 h 2 v 1 h 2 v 1 h 2 v 1 h 2 v 1 h 2 v 1 h 2 v 1 h 2 v 1 h 2 v 1 h 2 v 1 h 1 v 1 h 3 v 1 h 2 v 1 h 2 v 1 h 2 v 1 h 2 v 1 h 2 v 1 h 2 v 1 h 2 v 1 h 2 v 1 h 2 v 1 h 2 v 1 h 2 v 1 h 2 v 1 h 2 v 1 h 2 v 1 h 2 v 1 h 2 v 1 h 2 v 1 h 2 v 1 h 2 v 1 h 2 v 1 h 2 v 1 h 2 v 1 h 3 v 1 h 2 v 1 h 2 v 1 h 2 v 1 h 2 v 1 h 2 v 1 h 2 v 1 h 2 v 1 h 3 v 1 h 2 v 1 h 2 v 1 h 2 v 1 h 2 v 1 h 3 v 1 h 2 v 1 h 2 v 1 h 2 v 1 h 2 v 1 h 3 v 1 h 2 v 1 h 2 v 1 h 2 v 1 h 3 v 1 h 2 v 1 h 2 v 1 h 2 v 1 h 2 v 1 h 3 v 1 h 2 v 1 h 2 v 1 h 2 v 1 h 2 v 1 h 3 v 1 h 2 v 1 h 2 v 1 h 2 v 1 h 2 v 1 h 3 v 1 h 2 v 1 h 2 v 1 h 2 v 1 h 3 v 1 h 2 v 1 h 2 v 1 h 2 v 1 h 2 v 1 h 3 v 1 h 2 v 1 h 2 v 1 h 2 v 1 h 2 v 1 h 3 v 1 h 2 v 1 h 2 v 1 h 2 v 1 h 3 v 1 h 2 v 1 h 2 v 1 h 3 v 1 h 2 v 1 h 2 v 1 h 3 v 1 h 2 v 1 h 2 v 1 h 3 v 1 h 2 v 1 h 3 v 1 h 2 v 1 h 3 v 1 h 2 v 1 h 2 v 1 h 3 v 1 h 2 v 1 h 3 v 1 h 2 v 1 h 2 v 1 h 3 v 1 h 2 v 1 h 3 v 1 h 2 v 1 h 3 v 1 h 2 v 1 h 2 v 1 h 3 v 1 h 2 v 1 h 3 v 1 h 2 v 1 h 3 v 1 h 2 v 1 h 3 v 1 h 2 v 1 h 2 v 1 h 3 v 1 h 2 v 1 h 3 v 1 h 2 v 1 h 3 v 1 h 2 v 1 h 3 v 1 h 2 v 1 h 3 v 1 h 2 v 1 h 3 v 1 h 2 v 1 h 3 v 1 h 2 v 1 h 2 v 1 h 3 v 1 h 2 v 1 h 3 v 1 h 2 v 1 h 2 v 1 h 25 v -1 h 3 v -1 h 2 v -1 h 2 v -1 h 2 v -1 h 1 v -1 h 2 v -1 h 2 v -1 h 2 v -1 h 2 v -1 h 2 v -1 h 1 v -1 h 2 v -1 h 1 v -1 h 2 v -1 h 1 v -1 h 2 v -1 h 1 v -1 h 2 v -1 h 1 v -1 h 2 v -1 h 1 v -1 h 2 v -1 h 1 v -1 h 2 v -1 h 1 v -1 h 1 v -1 h 2 v -1 h 1 v -1 h 1 v -1 h 1 v -1 h 2 v -1 h 1 v -1 h 1 v -1 h 2 v -1 h 1 v -1 h 1 v -1 h 2 v -1 h 1 v -1 h 1 v -1 h 2 v -1 h 1 v -1 h 1 v -1 h 2 v -1 h 1 v -1 h 1 v -1 h 1 v -1 h 2 v -1 h 1 v -1 h 1 v -1 h 2 v -1 h 1 v -1 h 2 v -1 h 1 v -1 h 1 v -1 h 2 v -1 h 1 v -1 h 1 v -1 h 2 v -1 h 1 v -1 h 2 v -1 h 1 v -1 h 1 v -1 h 2 v -1 h 1 v -1 h 1 v -1 h 2 v -1 h 1 v -1 h 1 v -1 h 2 v -1 h 1 v -1 h 1 v -1 h 2 v -1 h 1 v -1 h 1 v -1 h 2 v -1 h 1 v -1 h 1 v -1 h 1 v -1 h 2 v -1 h 1 v -1 h 1 v -1 h 2 v -1 h 1 v -1 h 1 v -1 h 2 v -1 h 1 v -1 h 1 v -1 h 1 v -1 h 2 v -1 h 1 v -1 h 1 v -1 h 2 v -1 h 1 v -1 h 1 v -1 h 2 v -1 h 1 v -1 h 1 v -1 h 2 v -1 h 2 v -1 h 1 v -1 h 2 v -1 h 2 v -1 h 3 v -1 h 3 v -1 h 4 v -1 h 18 v 1 h 5 v 1 h 3 v 1 h 5 v 1 h 5 v 1 h 5 v 1 h 6 v 1 h 8 v 1 h 8 v 1 h 17 v -1 h 3 v -1 h 3 v -1 h 2 v -1 h 2 v -1 h 1 v -1 h 2 v -1 h 1 v -1 h 2 v -1 h 1 v -1 h 2 v -1 h 1 v -1 h 1 v -1 h 2 v -1 h 1 v -1 h 2 v -1 h 1 v -1 h 2 v -1 h 1 v -1 h 2 v -1 h 1 v -1 h 2 v -1 h 1 v -1 h 1 v -1 h 2 v -1 h 1 v -1 h 2 v -1 h 1 v -1 h 2 v -1 h 1 v -1 h 2 v -1 h 1 v -1 h 2 v -1 h 1 v -1 h 2 v -1 h 1 v -1 h 1 v -1 h 2 v -1 h 1 v -1 h 2 v -1 h 1 v -1 h 2 v -1 h 1 v -1 h 2 v -1 h 1 v -1 h 2 v -1 h 1 v -1 h 2 v -1 h 1 v -1 h 2 v -1 h 1 v -1 h 1 v -1 h 2 v -1 h 1 v -1 h 2 v -1 h 1 v -1 h 2 v -1 h 1 v -1 h 2 v -1 h 1 v -1 h 2 v -1 h 1 v -1 h 2 v -1 h 1 v -1 h 2 v -1 h 1 v -1 h 1 v -1 h 2 v -1 h 1 v -1 h 2 v -1 h 1 v -1 h 2 v -1 h 1 v -1 h 2 v -1 h 1 v -1 h 1 v -1 h 2 v -1 h 1 v -1 h 2 v -1 h 1 v -1 h 1 v -1 h 2 v -1 h 1 v -1 h 2 v -1 h 1 v -1 h 2 v -1 h 1 v -1 h 1 v -1 h 2 v -1 h 1 v -1 h 2 v -1 h 1 v -1 h 1 v -1 h 2 v -1 h 1 v -1 h 2 v -1 h 1 v -1 h 2 v -1 h 1 v -1 h 1 v -1 h 2 v -1 h 1 v -1 h 2 v -1 h 1 v -1 h 2 v -1 h 1 v -1 h 1 v -1 h 2 v -1 h 1 v -1 h 2 v -1 h 1 v -1 h 1 v -1 h 2 v -1 h 1 v -1 h 2 v -1 h 1 v -1 h 2 v -1 h 1 v -1 h 1 v -1 h 2 v -1 h 1 v -1 h 2 v -1 h 1 v -1 h 1 v -1 h 2 v -1 h 1 v -1 h 2 v -1 h 1 v -1 h 2 v -1 h 1 v -1 h 1 v -1 h 2 v -1 h 1 v -1 h 2 v -1 h 1 v -1 h 1 v -1 h 2 v -1 h 1 v -1 h 1 v -1 h 1 v -1 h 1 v -1 h 1 v -1 h 2 v -1 h 1 v -2 h 1 v -1 h 1 v -1 h 1 v -1 h 1 v -1 h 1 v -1 h 1 v -1 h 1 v -1 h 1 v -2 h -1 v 1 h -2 v 1 h -1 v 1 h -2 v 1 h -1 v 1 h -2 v 1 h -1 v 1 h -2 v 1 h -1 v 1 h -1 v 1 h -2 v 1 h -1 v 1 h -2 v 1 h -1 v 1 h -2 v 1 h -1 v 1 h -2 v 1 h -1 v 1 h -1 v 1 h -2 v 1 h -1 v 1 h -2 v 1 h -1 v 1 h -2 v 1 h -1 v 1 h -2 v 1 h -1 v 1 h -1 v 1 h -2 v 1 h -1 v 1 h -2 v 1 h -1 v 1 h -2 v 1 h -1 v 1 h -2 v 1 h -1 v 1 h -1 v 1 h -2 v 1 h -1 v 1 h -2 v 1 h -1 v 1 h -2 v 1 h -1 v 1 h -2 v 1 h -1 v 1 h -2 v 1 h -1 v 1 h -1 v 1 h -2 v 1 h -1 v 1 h -2 v 1 h -1 v 1 h -2 v 1 h -1 v 1 h -2 v 1 h -1 v 1 h -1 v 1 h -2 v 1 h -1 v 1 h -2 v 1 h -1 v 1 h -2 v 1 h -1 v 1 h -2 v 1 h -1 v 1 h -2 v 1 h -1 v 1 h -2 v 1 h -1 v 1 h -2 v 1 h -1 v 1 h -2 v 1 h -1 v 1 h -1 v 1 h -2 v 1 h -1 v 1 h -2 v 1 h -1 v 1 h -2 v 1 h -1 v 1 h -2 v 1 h -1 v 1 h -2 v 1 h -1 v 1 h -2 v 1 h -1 v 1 h -2 v 1 h -1 v 1 h -1 v 1 h -2 v 1 h -2 v 1 h -1 v 1 h -2 v 1 h -1 v 1 h -2 v 1 h -1 v 1 h -2 v 1 h -1 v 1 h -2 v 1 h -1 v 1 h -2 v 1 h -2 v 1 h -1 v 1 h -2 v 1 h -1 v 1 h -2 v 1 h -2 v 1 h -1 v 1 h -2 v 1 h -2 v 1 h -1 v 1 h -2 v 1 h -2 v 1 h -1 v 1 h -2 v 1 h -2 v 1 h -1 v 1 h -2 v 1 h -2 v 1 h -2 v 1 h -1 v 1 h -2 v 1 h -2 v 1 h -2 v 1 h -1 v 1 h -2 v 1 h -2 v 1 h -1 v 1 h -2 v 1 h -2 v 1 h -2 v 1 h -1 v 1 h -2 v 1 h -2 v 1 h -3 v 1 h -2 v 1 h -4 v 1 h -4 v 1 h -20 v -1 h -5 v -1 h -4 v -1 h -3 v -1 h -4 v -1 h -4 v -1 h -3 v -1 h -4 v -1 h -4 v -1 h -4 v -1 h -4 v -1 h -4 v -1 h -4 v -1 h -15 v 1 h -4 v 1 h -3 v 1 h -1 v 1 h -2 v 1 h -2 v 1 h -2 v 1 h -1 v 1 h -2 v 1 h -1 v 1 h -1 v 1 h -2 v 1 h -1 v 1 h -1 v 1 h -2 v 1 h -1 v 1 h -1 v 1 h -1 v 1 h -2 v 1 h -1 v 1 h -1 v 1 h -2 v 1 h -1 v 1 h -1 v 1 h -1 v 1 h -2 v 1 h -1 v 1 h -1 v 1 h -2 v 1 h -1 v 1 h -1 v 1 h -2 v 1 h -1 v 1 h -1 v 1 h -1 v 1 h -2 v 1 h -1 v 1 h -1 v 1 h -2 v 1 h -1 v 1 h -1 v 1 h -2 v 1 h -1 v 1 h -1 v 1 h -2 v 1 h -1 v 1 h -1 v 1 h -1 v 1 h -2 v 1 h -1 v 1 h -1 v 1 h -2 v 1 h -1 v 1 h -1 v 1 h -2 v 1 h -1 v 1 h -1 v 1 h -1 v 1 h -2 v 1 h -1 v 1 h -1 v 1 h -2 v 1 h -1 v 1 h -1 v 1 h -2 v 1 h -1 v 1 h -1 v 1 h -1 v 1 h -2 v 1 h -1 v 1 h -1 v 1 h -2 v 1 h -1 v 1 h -1 v 1 h -2 v 1 h -1 v 1 h -1 v 1 h -1 v 1 h -2 v 1 h -1 v 1 h -1 v 1 h -2 v 1 h -1 v 1 h -1 v 1 h -2 v 1 h -1 v 1 h -1 v 1 h -2 v 1 h -1 v 1 h -1 v 1 h -1 v 1 h -2 v 1 h -1 v 1 h -1 v 1 h -1 v 1 h -2 v 1 h -1 v 1 h -1 v 1 h -1 v 1 h -2 v 1 h -1 v 1 h -1 v 1 h -1 v 1 h -1 v 1 h -2 v 1 h -1 v 1 h -2 v 1 h -2 v 1 h -3 v 1 h -14 v -1 h -3 v -1 h -3 v -1 h -2 v -1 h -3 v -1 h -2 v -1 h -3 v -1 h -3 v -1 h -2 v -1 h -3 v -1 h -2 v -1 h -3 v -1 h -2 v -1 h -3 v -1 h -2 v -1 h -3 v -1 h -2 v -1 h -3 v -1 h -2 v -1 h -3 v -1 h -2 v -1 h -2 v -1 h -3 v -1 h -2 v -1 h -3 v -1 h -2 v -1 h -2 v -1 h -2 v -1 h -3 v -1 h -2 v -1 h -2 v -1 h -2 v -1 h -2 v -1 h -3 v -1 h -2 v -1 h -2 v -1 h -2 v -1 h -2 v -1 h -2 v -1 h -2 v -1 h -3 v -1 h -2 v -1 h -2 v -1 h -2 v -1 h -2 v -1 h -2 v -1 h -3 v -1 h -2 v -1 h -2 v -1 h -2 v -1 h -2 v -1 h -2 v -1 h -2 v -1 h -2 v -1 h -2 v -1 h -2 v -1 h -2 v -1 h -2 v -1 h -2 v -1 h -2 v -1 h -2 v -1 h -2 v -1 h -2 v -1 h -2 v -1 h -2 v -1 h -2 v -1 h -2 v -1 h -1 v -1 h -2 v -1 h -2 v -1 h -2 v -1 h -2 v -1 h -2 v -1 h -1 v -1 h -2 v -1 h -2 v -1 h -2 v -1 h -2 v -1 h -1 v -1 h -2 v -1 h -2 v -1 h -2 v -1 h -1 v -1 h -2 v -1 h -2 v -1 h -2 v -1 h -2 v -1 h -1 v -1 h -2 v -1 h -2 v -1 h -2 v -1 h -1 v -1 h -2 v -1 h -2 v -1 h -2 v -1 h -1 v -1 h -2 v -1 h -2 v -1 h -2 v -1 h -2 v -1 h -1 v -1 h -2 v -1 h -2 v -1 h -2 v -1 h -1 v -1 h -2 v -1 h -2 v -1 h -2 v -1 h -1 v -1 h -2 v -1 h -2 v -1 h -2 v -1 h -1 v -1 h -2 v -1 h -2 v -1 h -2 v -1 h -1 v -1 h -2 v -1 h -2 v -1 h -1 v -1 h -2 v -1 h -2 v -1 h -2 v -1 h -1 v -1 h -2 v -1 h -2 v -1 h -1 v -1 h -2 v -1 h -2 v -1 h -1 v -1 h -2 v -1 h -2 v -1 h -2 v -1 h -1 v -1 h -2 v -1 h -2 v -1 h -1 v -1 h -2 v -1 h -2 v -1 h -1 v -1 h -2 v -1 h -2 v -1 h -2 v -1 h -1 v -1 h -2 v -1 h -2 v -1 h -1 v -1 h -2 v -1 h -2 v -1 h -1 v -1 h -2 v -1 h -2 v -1 h -1 v -1 h -2 v -1 h -2 v -1 h -1 v -1 h -2 v -1 h -1 v -1 h -2 v -1 h -2 v -1 h -1 v -1 h -2 v -1 h -1 v -1 h -2 v -1 h -1 v -1 h -1 v -1 h -2 v -1 h -1 v -1 h -2 v -1 h -1 v -1 h -2 v -1 h -1 v -1 h -2 v -1 h -1 v -1 h -2 v -1 h -1 v -1 h -2 v -1 h -1 v -1 h -2 v -1 h -1 v -1 h -2 v -1 h -1 v -1 h -2 v -1 h -1 v -1 h -2 v -1 h -1 v -1 h -1 v -1 h -2 v -1 h -1 v -1 h -2 v -1 h -1 v -1 h -2 v -1 h -1 v -1 h -1 v -1 h -2 v -1 h -1 v -1 h -2 v -1 h -1 v -1 h -1 v -1 h -2 v -1 h -1 v -1 h -2 v -1 h -1 v -1 h -1 v -1 h -2 v -1 h -1 v -1 h -2 v -1 h -1 v -1 h -2 v -1 h -1 v -1 h -1 v -1 h -2 v -1 h -1 v -1 h -2 v -1 h -1 v -1 h -1 v -1 h -1 v -1 h -1 v -1 h -2 v -1 h -1 v -1 h -1 v -1 h -1 v -1 h -1 v -1 h -2 v -1 h -1 v -1 h -1 v -1 h -1 v -1 h -2 v -1 h -1 v -1 h -2 v -1 h -1 v -1 h -2 v -1 h -1 v -1 h -2 v -1 h -2 v -1 h -14 v -1 h -3 v -1 h -3 v -1 h -2 v -1 h -2 v -1 h -2 v -1 h -1 v -1 h -2 v -1 h -1 v -1 h -1 v -1 h -1 v -1 h -2 v -1 h -1 v -1 h -1 v -1 h -1 v -1 h -2 v -1 h -1 v -1 h -1 v -1 h -1 v -1 h -1 v -1 h -1 v -1 h -2 v -1 h -1 v -1 h -1 v -1 h -1 v -1 h -1 v -1 h -2 v -1 h -1 v -1 h -1 v -1 h -1 v -1 h -1 v -1 h -2 v -1 h -1 v -1 h -1 v -1 h -1 v -1 h -1 v -1 h -2 v -1 h -1 v -1 h -1 v -1 h -2 v -1 h -1 v -1 h -2 v -1 h -2 v -1 h -3 v -1 h -3 v -1 z m 992,74 v 1 h -1 v 2 h -1 v 1 h -1 v 1 h -1 v 1 h -1 v 1 h -1 v 1 h -1 v 1 h -1 v 1 h -2 v 1 h -1 v 1 h -1 v 1 h -1 v 1 h -1 v 1 h -2 v 1 h -1 v 1 h -1 v 1 h -1 v 1 h -2 v 1 h -1 v 1 h -1 v 1 h -2 v 1 h -1 v 1 h -2 v 1 h -1 v 1 h -1 v 1 h -2 v 1 h -1 v 1 h -2 v 1 h -1 v 1 h -2 v 1 h -1 v 1 h -1 v 1 h -2 v 1 h -1 v 1 h -2 v 1 h -1 v 1 h -1 v 1 h -2 v 1 h -1 v 1 h -1 v 2 h -1 v 1 h -1 v 2 h -1 v 1 h -1 v 2 h -1 v 1 h -1 v 1 h -1 v 1 h -1 v 2 h -1 v 1 h -1 v 1 h -1 v 2 h -1 v 1 h -1 v 1 h -1 v 1 h -1 v 2 h -1 v 1 h -1 v 1 h -1 v 2 h -1 v 1 h -1 v 1 h -1 v 2 h -1 v 1 h -1 v 1 h -1 v 1 h -1 v 2 h -1 v 1 h -1 v 1 h -1 v 1 h -1 v 2 h -1 v 1 h -1 v 1 h -1 v 1 h -1 v 1 h -1 v 1 h -1 v 1 h -1 v 1 h -1 v 1 h -1 v 2 h -1 v 1 h -1 v 1 h -1 v 1 h -1 v 1 h -1 v 1 h -1 v 1 h -1 v 1 h -1 v 2 h -1 v 1 h -1 v 1 h -1 v 1 h -1 v 1 h -1 v 1 h -1 v 1 h -1 v 1 h -1 v 1 h -1 v 1 h -1 v 1 h -1 v 1 h -1 v 1 h -1 v 1 h -1 v 1 h -1 v 1 h -1 v 1 h -1 v 1 h -1 v 1 h -1 v 1 h -1 v 1 h -1 v 1 h -1 v 1 h -1 v 1 h -1 v 1 h -1 v 1 h -1 v 1 h -1 v 1 h -1 v 1 h -1 v 1 h -1 v 1 h -2 v 1 h -1 v 1 h -1 v 1 h -1 v 1 h -1 v 1 h -1 v 1 h -1 v 1 h -1 v 1 h -2 v 1 h -1 v 1 h -1 v 1 h -1 v 1 h -1 v 1 h -1 v 1 h -1 v 1 h -2 v 1 h -1 v 1 h -1 v 1 h -1 v 1 h -1 v 1 h -2 v 1 h -1 v 1 h -1 v 1 h -2 v 1 h -1 v 1 h -1 v 1 h -2 v 1 h -1 v 1 h -1 v 1 h -2 v 1 h -1 v 1 h -1 v 1 h -2 v 1 h -1 v 1 h -1 v 1 h -2 v 1 h -1 v 1 h -1 v 1 h -2 v 1 h -1 v 1 h -1 v 1 h -2 v 1 h -1 v 1 h -1 v 1 h -2 v 1 h -1 v 1 h -1 v 1 h -2 v 1 h -1 v 1 h -2 v 1 h -1 v 1 h -2 v 1 h -2 v 1 h -1 v 1 h -2 v 1 h -2 v 1 h -1 v 1 h -2 v 1 h -2 v 1 h -1 v 1 h -2 v 1 h -2 v 1 h -1 v 1 h -2 v 1 h -2 v 1 h -1 v 1 h -2 v 1 h -2 v 1 h -1 v 1 h -2 v 1 h -1 v 1 h -2 v 1 h -2 v 1 h -1 v 1 h -2 v 1 h -2 v 1 h -2 v 1 h -2 v 1 h -2 v 1 h -2 v 1 h -2 v 1 h -2 v 1 h -2 v 1 h -2 v 1 h -2 v 1 h -2 v 1 h -2 v 1 h -2 v 1 h -2 v 1 h -2 v 1 h -2 v 1 h -2 v 1 h -3 v 1 h -2 v 1 h -2 v 1 h -3 v 1 h -2 v 1 h -2 v 1 h -3 v 1 h -2 v 1 h -3 v 1 h -2 v 1 h -3 v 1 h -3 v 1 h -3 v 1 h -3 v 1 h -2 v 1 h -3 v 1 h -3 v 1 h -3 v 1 h -3 v 1 h -3 v 1 h -3 v 1 h -3 v 1 h -3 v 1 h -4 v 1 h -4 v 1 h -4 v 1 h -4 v 1 h -4 v 1 h -4 v 1 h -4 v 1 h -3 v 1 h -4 v 1 h -4 v 1 h -4 v 1 h -4 v 1 h -6 v 1 h -7 v 1 h -6 v 1 h -7 v 1 h -7 v 1 h -6 v 1 h -7 v 1 h -7 v 1 h -16 v 1 h -15 v 1 h -41 v -1 h -15 v -1 h -15 v -1 h -8 v -1 h -6 v -1 h -7 v -1 h -7 v -1 h -6 v -1 h -7 v -1 h -7 v -1 h -6 v -1 h -4 v -1 h -4 v -1 h -4 v -1 h -3 v -1 h -4 v -1 h -4 v -1 h -4 v -1 h -4 v -1 h -4 v -1 h -4 v -1 h -4 v -1 h -4 v -1 h -3 v -1 h -3 v -1 h -3 v -1 h -3 v -1 h -3 v -1 h -3 v -1 h -3 v -1 h -2 v -1 h -3 v -1 h -3 v -1 h -3 v -1 h -3 v -1 h -3 v -1 h -2 v -1 h -3 v -1 h -2 v -1 h -2 v -1 h -3 v -1 h -2 v -1 h -3 v -1 h -2 v -1 h -2 v -1 h -3 v -1 h -2 v -1 h -2 v -1 h -2 v -1 h -2 v -1 h -2 v -1 h -2 v -1 h -2 v -1 h -2 v -1 h -2 v -1 h -2 v -1 h -2 v -1 h -2 v -1 h -2 v -1 h -2 v -1 h -2 v -1 h -2 v -1 h -2 v -1 h -1 v -1 h -2 v -1 h -2 v -1 h -1 v -1 h -2 v -1 h -2 v -1 h -1 v -1 h -2 v -1 h -2 v -1 h -1 v -1 h -2 v -1 h -2 v -1 h -1 v -1 h -2 v -1 h -2 v -1 h -1 v -1 h -2 v -1 h -2 v -1 h -1 v -1 h -2 v -1 h -2 v -1 h -1 v -1 h -2 v -1 h -1 v -1 h -2 v -1 h -2 v -1 h -1 v -1 h -2 v -1 h -1 v -1 h -1 v -1 h -2 v -1 h -1 v -1 h -1 v -1 h -2 v -1 h -1 v -1 h -1 v -1 h -2 v -1 h -1 v -1 h -1 v -1 h -2 v -1 h -1 v -1 h -1 v -1 h -2 v -1 h -1 v -1 h -1 v -1 h -2 v -1 h -1 v -1 h -1 v -1 h -2 v -1 h -1 v -1 h -1 v -1 h -2 v -1 h -1 v -1 h -1 v -1 h -2 v -1 h -1 v -1 h -1 v -1 h -1 v -1 h -1 v -1 h -2 v -1 h -1 v -1 h -1 v -1 h -1 v -1 h -1 v -1 h -1 v -1 h -1 v -1 h -1 v -1 h -2 v -1 h -1 v -1 h -1 v -1 h -1 v -1 h -1 v -1 h -1 v -1 h -1 v -1 h -2 v -1 h -1 v -1 h -1 v -1 h -1 v -1 h -1 v -1 h -1 v -1 h -1 v -1 h -1 v -1 h -1 v -1 h -1 v -1 h -1 v -1 h -1 v -1 h -1 v -1 h -1 v -1 h -1 v -1 h -1 v -1 h -1 v -1 h -1 v -1 h -1 v -1 h -1 v -1 h -1 v -1 h -1 v -1 h -1 v -1 h -1 v -1 h -1 v -1 h -1 v -1 h -1 v -1 h -1 v -1 h -1 v -1 h -1 v -1 h -1 v -1 h -1 v -2 h -1 v -1 h -1 v -1 h -1 v -1 h -1 v -1 h -1 v -1 h -1 v -1 h -1 v -1 h -2 v -1 h -1 v -1 h -2 v -1 h -2 v -1 h -2 v -1 h -2 v -1 h -2 v -1 h -2 v -1 h -1 v -1 h -2 v -1 h -2 v -1 h -2 v -1 h -2 v -1 h -2 v -1 h -1 v -1 h -2 v -1 h -2 v -1 h -2 v -1 h -2 v -1 h -1 v -1 h -2 v -1 h -2 v -1 h -2 v -1 h -2 v -1 h -1 v -1 h -2 v -1 h -2 v -1 h -2 v -1 h -1 v 2 h 1 v 2 h 1 v 1 h 1 v 1 h 1 v 2 h 1 v 1 h 1 v 1 h 1 v 2 h 1 v 1 h 1 v 1 h 1 v 1 h 1 v 2 h 1 v 1 h 1 v 1 h 1 v 1 h 1 v 2 h 1 v 1 h 1 v 1 h 1 v 1 h 1 v 2 h 1 v 1 h 1 v 1 h 1 v 1 h 1 v 2 h 1 v 1 h 1 v 1 h 1 v 1 h 1 v 2 h 1 v 1 h 1 v 1 h 1 v 1 h 1 v 1 h 1 v 1 h 1 v 1 h 1 v 1 h 1 v 1 h 1 v 2 h 1 v 1 h 1 v 1 h 1 v 1 h 1 v 1 h 1 v 1 h 1 v 1 h 1 v 1 h 1 v 1 h 1 v 1 h 1 v 2 h 1 v 1 h 1 v 1 h 1 v 1 h 1 v 1 h 1 v 1 h 1 v 1 h 1 v 1 h 1 v 1 h 1 v 1 h 1 v 1 h 1 v 1 h 1 v 1 h 1 v 1 h 1 v 1 h 1 v 1 h 1 v 1 h 1 v 1 h 1 v 1 h 1 v 1 h 1 v 1 h 1 v 1 h 1 v 1 h 1 v 1 h 1 v 1 h 1 v 1 h 2 v 1 h 1 v 1 h 1 v 1 h 1 v 1 h 1 v 1 h 1 v 1 h 1 v 1 h 1 v 1 h 2 v 1 h 1 v 1 h 1 v 1 h 1 v 1 h 1 v 1 h 1 v 1 h 1 v 1 h 2 v 1 h 1 v 1 h 1 v 1 h 1 v 1 h 1 v 1 h 1 v 1 h 1 v 1 h 2 v 1 h 1 v 1 h 1 v 1 h 2 v 1 h 1 v 1 h 1 v 1 h 2 v 1 h 1 v 1 h 1 v 1 h 2 v 1 h 1 v 1 h 1 v 1 h 2 v 1 h 1 v 1 h 1 v 1 h 2 v 1 h 1 v 1 h 1 v 1 h 2 v 1 h 1 v 1 h 1 v 1 h 2 v 1 h 1 v 1 h 1 v 1 h 2 v 1 h 1 v 1 h 1 v 1 h 2 v 1 h 1 v 1 h 1 v 1 h 2 v 1 h 1 v 1 h 2 v 1 h 2 v 1 h 1 v 1 h 2 v 1 h 1 v 1 h 2 v 1 h 2 v 1 h 1 v 1 h 2 v 1 h 2 v 1 h 1 v 1 h 2 v 1 h 2 v 1 h 1 v 1 h 2 v 1 h 2 v 1 h 1 v 1 h 2 v 1 h 2 v 1 h 1 v 1 h 2 v 1 h 2 v 1 h 1 v 1 h 2 v 1 h 1 v 1 h 2 v 1 h 2 v 1 h 2 v 1 h 2 v 1 h 2 v 1 h 2 v 1 h 2 v 1 h 2 v 1 h 2 v 1 h 2 v 1 h 2 v 1 h 2 v 1 h 2 v 1 h 2 v 1 h 2 v 1 h 2 v 1 h 2 v 1 h 2 v 1 h 2 v 1 h 2 v 1 h 3 v 1 h 2 v 1 h 2 v 1 h 3 v 1 h 2 v 1 h 2 v 1 h 3 v 1 h 2 v 1 h 3 v 1 h 2 v 1 h 3 v 1 h 3 v 1 h 3 v 1 h 3 v 1 h 3 v 1 h 2 v 1 h 3 v 1 h 3 v 1 h 3 v 1 h 3 v 1 h 3 v 1 h 3 v 1 h 3 v 1 h 4 v 1 h 4 v 1 h 3 v 1 h 4 v 1 h 4 v 1 h 4 v 1 h 4 v 1 h 4 v 1 h 4 v 1 h 4 v 1 h 4 v 1 h 4 v 1 h 4 v 1 h 5 v 1 h 7 v 1 h 7 v 1 h 6 v 1 h 7 v 1 h 7 v 1 h 7 v 1 h 6 v 1 h 13 v 1 h 15 v 1 h 59 v -1 h 15 v -1 h 13 v -1 h 7 v -1 h 6 v -1 h 7 v -1 h 7 v -1 h 6 v -1 h 7 v -1 h 7 v -1 h 5 v -1 h 4 v -1 h 4 v -1 h 4 v -1 h 4 v -1 h 4 v -1 h 4 v -1 h 4 v -1 h 4 v -1 h 4 v -1 h 4 v -1 h 4 v -1 h 3 v -1 h 4 v -1 h 3 v -1 h 3 v -1 h 3 v -1 h 3 v -1 h 3 v -1 h 3 v -1 h 3 v -1 h 3 v -1 h 2 v -1 h 3 v -1 h 3 v -1 h 3 v -1 h 3 v -1 h 3 v -1 h 2 v -1 h 2 v -1 h 3 v -1 h 2 v -1 h 2 v -1 h 3 v -1 h 2 v -1 h 2 v -1 h 3 v -1 h 2 v -1 h 2 v -1 h 2 v -1 h 2 v -1 h 2 v -1 h 2 v -1 h 2 v -1 h 2 v -1 h 2 v -1 h 2 v -1 h 2 v -1 h 2 v -1 h 2 v -1 h 2 v -1 h 2 v -1 h 2 v -1 h 2 v -1 h 2 v -1 h 2 v -1 h 2 v -1 h 1 v -1 h 2 v -1 h 2 v -1 h 1 v -1 h 2 v -1 h 1 v -1 h 2 v -1 h 2 v -1 h 1 v -1 h 2 v -1 h 2 v -1 h 1 v -1 h 2 v -1 h 2 v -1 h 1 v -1 h 2 v -1 h 2 v -1 h 1 v -1 h 2 v -1 h 2 v -1 h 1 v -1 h 2 v -1 h 2 v -1 h 1 v -1 h 2 v -1 h 1 v -1 h 2 v -1 h 1 v -1 h 1 v -1 h 2 v -1 h 1 v -1 h 1 v -1 h 2 v -1 h 1 v -1 h 1 v -1 h 2 v -1 h 1 v -1 h 1 v -1 h 2 v -1 h 1 v -1 h 1 v -1 h 2 v -1 h 1 v -1 h 1 v -1 h 2 v -1 h 1 v -1 h 1 v -1 h 2 v -1 h 1 v -1 h 1 v -1 h 2 v -1 h 1 v -1 h 1 v -1 h 2 v -1 h 1 v -1 h 1 v -1 h 2 v -1 h 1 v -1 h 1 v -1 h 1 v -1 h 1 v -1 h 1 v -1 h 2 v -1 h 1 v -1 h 1 v -1 h 1 v -1 h 1 v -1 h 1 v -1 h 1 v -1 h 2 v -1 h 1 v -1 h 1 v -1 h 1 v -1 h 1 v -1 h 1 v -1 h 1 v -1 h 1 v -1 h 2 v -1 h 1 v -1 h 1 v -1 h 1 v -1 h 1 v -1 h 1 v -1 h 1 v -1 h 1 v -1 h 1 v -1 h 1 v -1 h 1 v -1 h 1 v -1 h 1 v -1 h 1 v -1 h 1 v -1 h 1 v -1 h 1 v -1 h 1 v -1 h 1 v -1 h 1 v -1 h 1 v -1 h 1 v -1 h 1 v -1 h 1 v -1 h 1 v -1 h 1 v -1 h 1 v -1 h 1 v -1 h 1 v -1 h 1 v -2 h 1 v -1 h 1 v -1 h 1 v -1 h 1 v -1 h 1 v -1 h 1 v -1 h 1 v -1 h 1 v -1 h 1 v -1 h 1 v -2 h 1 v -1 h 1 v -1 h 1 v -1 h 1 v -1 h 1 v -1 h 1 v -2 h 1 v -1 h 1 v -1 h 1 v -1 h 1 v -2 h 1 v -1 h 1 v -1 h 1 v -1 h 1 v -2 h 1 v -1 h 1 v -1 h 1 v -1 h 1 v -2 h 1 v -1 h 1 v -1 h 1 v -1 h 1 v -2 h 1 v -1 h 1 v -1 h 1 v -1 h 1 v -2 h 1 v -1 h 1 v -1 h 1 v -2 h 1 v -1 h 1 v -1 h 1 v -2 h 1 v -1 h 1 v -2 h 1 v -1 h 1 v -2 h 1 v -1 h 1 v -2 h 1 v -1 h 1 v -2 h 1 v -1 h 1 v -2 h 1 v -1 h 1 v -1 h 1 v -2 h 1 v -1 h 1 v -2 h 1 v -1 h 1 v -2 h 1 v -1 h 1 v -2 h 1 v -1 h 1 v -2 h 1 v -2 h 1 v -1 h 1 v -2 h 1 v -2 h 1 v -1 h 1 v -2 h 1 v -2 h 1 v -2 h 1 v -1 h 1 v -2 h 1 v -2 h 1 v -1 h 1 v -2 h 1 v -2 h 1 v -2 h 1 v -1 h 1 v -2 h 1 v -2 h 1 v -2"
               style="fill:url(#linearGradient30);fill-opacity:1;fill-rule:nonzero;stroke:none"
               id="path32" />
          </g>
        </g>
      </g>
    </g>
  </g>
</svg>
